<svg width="21" height="21" viewBox="0 0 21 21" fill="none" xmlns="http://www.w3.org/2000/svg">
<mask id="mask0_354_35519" style="mask-type:luminance" maskUnits="userSpaceOnUse" x="0" y="0" width="21" height="21">
<path d="M0.609375 0.0996094H20.6094V20.0996H0.609375V0.0996094Z" fill="white"/>
</mask>
<g mask="url(#mask0_354_35519)">
<path d="M16.4427 8.44336H9.44792L16.2083 8.94857L15.4792 10.5059H9.44792L15.2448 11.0111L14.4271 12.7663H7.90104L6.64583 6.69336H17.2604L16.4427 8.44336ZM12.6979 15.235C12.1042 15.235 11.6146 14.7507 11.6146 14.1517C11.6146 13.5527 12.1042 13.0684 12.6979 13.0684C13.2969 13.0684 13.7812 13.5527 13.7812 14.1517C13.7812 14.7507 13.2969 15.235 12.6979 15.235ZM7.96354 15.235C7.36458 15.235 6.88021 14.7507 6.88021 14.1517C6.88021 13.5527 7.36458 13.0684 7.96354 13.0684C8.5625 13.0684 9.04688 13.5527 9.04688 14.1517C9.04688 14.7507 8.5625 15.235 7.96354 15.235ZM5.51562 7.25065L3.61458 5.99023L3.95312 5.11523L6.33854 6.68815L7.59375 12.7663H6.65625L5.51562 7.25065ZM10.4375 0.0996094C5.01042 0.0996094 0.609375 4.49544 0.609375 9.92773C0.609375 15.3548 5.01042 19.7559 10.4375 19.7559C15.8646 19.7559 20.2656 15.3548 20.2656 9.92773C20.2656 4.49544 15.8646 0.0996094 10.4375 0.0996094Z" fill="#FFDE00"/>
</g>
</svg>
