<svg width="18" height="18" viewBox="0 0 18 18" fill="none" xmlns="http://www.w3.org/2000/svg">
<mask id="mask0_354_35094" style="mask-type:luminance" maskUnits="userSpaceOnUse" x="0" y="0" width="18" height="18">
<path d="M0.277344 0.730469H17.2773V17.7305H0.277344V0.730469Z" fill="white"/>
</mask>
<g mask="url(#mask0_354_35094)">
<path d="M8.85026 0.730469C4.11589 0.730469 0.277344 4.56901 0.277344 9.30339C0.277344 14.0326 4.11589 17.8711 8.85026 17.8711C13.5794 17.8711 17.418 14.0326 17.418 9.30339C17.418 4.56901 13.5794 0.730469 8.85026 0.730469ZM13.0117 12.8294L12.7565 13.1836C12.444 13.5742 12.1263 13.8034 11.5638 13.9128C9.78776 14.2565 7.78255 12.7669 6.54818 11.3138L6.53776 11.3034C5.30339 9.85547 4.15234 7.63151 4.77214 5.93359C4.97526 5.38672 5.25651 5.11589 5.6888 4.8763L6.08464 4.67839C6.29818 4.56901 6.56901 4.65234 6.68359 4.86589L7.76693 6.86068C7.88672 7.07422 7.80859 7.34505 7.59505 7.47005L7.13672 7.73568C7.01693 7.80339 6.91797 7.89193 6.83464 7.99609C6.46484 8.45443 6.68359 9.10026 7.70443 10.3034L7.72005 10.319C8.74089 11.5169 9.35026 11.8398 9.86589 11.543C9.98568 11.4805 10.0794 11.3919 10.1628 11.2878L10.4961 10.8763C10.6523 10.6836 10.9388 10.6523 11.1315 10.8086L12.9232 12.1992C13.1159 12.3555 13.1576 12.6263 13.0117 12.8294Z" fill="#FFDE00"/>
</g>
</svg>
