<svg width="18" height="18" viewBox="0 0 18 18" fill="none" xmlns="http://www.w3.org/2000/svg">
<mask id="mask0_449_233" style="mask-type:luminance" maskUnits="userSpaceOnUse" x="8" y="0" width="3" height="4">
<path d="M8.88672 0.505859H10.2201V3.99544H8.88672V0.505859Z" fill="white"/>
</mask>
<g mask="url(#mask0_449_233)">
<path d="M9.35221 2.92243C9.347 3.01618 9.37304 3.0943 9.44075 3.16722C9.50325 3.23493 9.58137 3.27139 9.67512 3.27139C9.76887 3.27139 9.85221 3.23493 9.91471 3.16722C9.97721 3.09951 10.0085 3.01618 10.0032 2.92243C10.0032 2.22972 10.0033 1.53701 9.99804 0.844303C9.99283 0.740137 9.95117 0.656803 9.87304 0.594303C9.79492 0.531803 9.70117 0.50576 9.60221 0.526595C9.43033 0.563052 9.347 0.672427 9.35221 0.844303C9.35221 1.53701 9.35221 2.22972 9.35221 2.92243Z" fill="#FFDE00"/>
</g>
<path d="M6.71703 2.98977C6.83682 3.0106 6.94099 2.97935 7.02953 2.89602C7.11807 2.81269 7.15974 2.70852 7.14411 2.58873C7.1337 2.47415 7.08161 2.3856 6.99307 2.3231C6.89932 2.2554 6.80036 2.23977 6.69099 2.26581C6.58161 2.29185 6.50349 2.35956 6.45661 2.45852C6.40453 2.55748 6.39932 2.66165 6.44619 2.76581C6.50349 2.8804 6.59203 2.95331 6.71703 2.98977Z" fill="#FFDE00"/>
<path d="M12.5503 2.99457C12.6649 2.99457 12.7586 2.95291 12.8315 2.86437C12.9045 2.78103 12.9305 2.68207 12.9149 2.56749C12.894 2.45812 12.8368 2.36958 12.7378 2.31228C12.644 2.25499 12.5399 2.24457 12.4357 2.28103C12.3055 2.3227 12.2326 2.40603 12.2013 2.53624C12.1753 2.65083 12.2013 2.74978 12.269 2.84353C12.342 2.93728 12.4305 2.98937 12.5503 2.99457Z" fill="#FFDE00"/>
<path d="M3.57788 3.88565C3.80183 4.12003 4.01537 4.36482 4.24975 4.59399C4.33308 4.66169 4.43204 4.67732 4.53621 4.64607C4.64038 4.61482 4.71329 4.54711 4.74975 4.44295C4.83308 4.28149 4.71329 4.12003 4.60392 4.01065C4.37996 3.78669 4.16121 3.55232 3.95288 3.30753C3.83308 3.15649 3.68204 3.12003 3.49975 3.19815C3.36954 3.27628 3.30704 3.39086 3.32267 3.5419C3.37996 3.67732 3.46329 3.7919 3.57788 3.88565Z" fill="#FFDE00"/>
<path d="M14.7897 4.65127C14.9147 4.68252 15.0189 4.65127 15.1126 4.56273C15.3366 4.33877 15.5397 4.09398 15.7689 3.87002C15.8731 3.74502 16.0397 3.63044 16.0033 3.44815C15.9824 3.33877 15.9251 3.25544 15.8262 3.20856C15.7272 3.15648 15.6283 3.15127 15.5241 3.19815C15.4616 3.2294 15.4095 3.27106 15.3626 3.32836C15.1543 3.55752 14.946 3.7919 14.7272 4.01065C14.6387 4.08877 14.5814 4.18773 14.5605 4.30231C14.5449 4.4794 14.623 4.59398 14.7897 4.65127Z" fill="#FFDE00"/>
<path d="M6.52133 17.1197C8.52133 17.1197 10.5213 17.1197 12.5161 17.1197C12.8182 17.1354 13.1099 17.1197 13.4067 17.0676C13.9692 16.9374 14.438 16.6562 14.8078 16.2135C15.1828 15.7708 15.3859 15.2656 15.412 14.6874C15.4172 12.4999 15.4172 10.3124 15.412 8.13015C15.4172 7.33848 15.1255 6.67181 14.5422 6.13536C14.063 5.69265 13.5005 5.45827 12.8495 5.44265C11.0474 5.44265 9.24528 5.44265 7.4432 5.44265C6.98487 5.42181 6.53174 5.43744 6.07862 5.48432C5.56299 5.58327 5.12028 5.81244 4.74528 6.17702C4.36508 6.5364 4.12028 6.9739 4.0057 7.48432C3.93799 7.93744 3.91195 8.39577 3.93278 8.85411C3.93278 10.6249 3.93278 12.3906 3.93278 14.1562C3.92237 14.4426 3.93278 14.7291 3.96403 15.0104C4.08903 15.6926 4.43278 16.2395 4.98487 16.651C5.4432 16.9843 5.95362 17.1406 6.52133 17.1197ZM5.42758 11.1562C5.42237 10.052 5.79216 9.09369 6.54216 8.28119C7.33383 7.40619 8.31299 6.95306 9.49008 6.90619C10.1099 6.88015 10.7088 6.98432 11.287 7.2239C11.8547 7.45827 12.3495 7.79681 12.7713 8.23952C13.2088 8.69786 13.5265 9.2239 13.7245 9.82807C14.0005 10.7291 14.0109 11.6406 13.7505 12.5468C13.5526 13.2083 13.2192 13.7916 12.7609 14.302C12.3547 14.7395 11.8807 15.0781 11.3286 15.3124C10.3547 15.7135 9.36508 15.7499 8.35987 15.4218C7.28695 15.0729 6.48487 14.3958 5.95362 13.401C5.57862 12.7031 5.40153 11.9531 5.42758 11.1562Z" fill="#FFDE00"/>
<mask id="mask1_449_233" style="mask-type:luminance" maskUnits="userSpaceOnUse" x="0" y="6" width="4" height="4">
<path d="M0.933594 6.66211H3.55339V9.32878H0.933594V6.66211Z" fill="white"/>
</mask>
<g mask="url(#mask1_449_233)">
<path d="M1.37752 8.08381C1.66398 8.08381 1.95044 8.08901 2.2369 8.08901C2.38273 8.08381 2.4869 8.0161 2.54419 7.88068C2.58586 7.78693 2.58586 7.69318 2.53377 7.59943C2.48169 7.50568 2.40877 7.4536 2.30461 7.43797C2.00773 7.42756 1.71086 7.43797 1.41398 7.43276C1.35148 7.42235 1.28898 7.42756 1.22648 7.4536C1.12753 7.49526 1.06502 7.56818 1.03898 7.66714C1.01815 7.77652 1.03898 7.87547 1.10669 7.95881C1.17961 8.04214 1.26815 8.08381 1.37752 8.08381Z" fill="#FFDE00"/>
</g>
<mask id="mask2_449_233" style="mask-type:luminance" maskUnits="userSpaceOnUse" x="15" y="6" width="3" height="4">
<path d="M15.5508 6.66211H17.931V9.32878H15.5508V6.66211Z" fill="white"/>
</mask>
<g mask="url(#mask2_449_233)">
<path d="M17.0907 8.08993C17.3824 8.08472 17.6688 8.08993 17.9553 8.08993C18.1167 8.09514 18.2313 8.02222 18.2938 7.87639C18.3355 7.77743 18.3303 7.67847 18.273 7.58472C18.2157 7.49097 18.1324 7.43889 18.023 7.43368C17.7313 7.42847 17.4449 7.43368 17.1584 7.43368C17.0855 7.42326 17.0126 7.43368 16.9449 7.45972C16.8615 7.49097 16.8042 7.55347 16.773 7.6368C16.7313 7.75139 16.7469 7.85035 16.8147 7.9493C16.8824 8.04305 16.9761 8.08993 17.0907 8.08993Z" fill="#FFDE00"/>
</g>
<path d="M7.39474 11.438C7.58225 11.6307 7.79058 11.8025 7.96245 12.0161C7.87391 12.589 7.74891 13.1567 7.70204 13.7296C7.66037 13.9015 7.71245 14.0369 7.84787 14.1411C7.9885 14.214 8.1187 14.2036 8.23849 14.0994C8.71245 13.7973 9.1812 13.4796 9.67599 13.1984C10.176 13.4796 10.6447 13.8182 11.1395 14.115C11.2072 14.1671 11.2854 14.188 11.3687 14.188C11.4625 14.1776 11.5406 14.1307 11.5979 14.0525C11.6552 13.9744 11.676 13.8911 11.6656 13.7973C11.6031 13.188 11.4572 12.5942 11.4052 11.99C11.8166 11.5473 12.2802 11.1515 12.676 10.6984C12.7385 10.6359 12.7645 10.5578 12.7593 10.4744C12.7541 10.3911 12.7177 10.3182 12.6552 10.2609C12.5614 10.2088 12.4625 10.188 12.3531 10.188C11.801 10.1515 11.2437 10.1046 10.6864 10.0473C10.4885 9.62547 10.327 9.18797 10.1187 8.7713C10.0614 8.62547 9.9937 8.49005 9.91037 8.35984C9.8062 8.24526 9.6812 8.21922 9.54058 8.28692C9.37912 8.35984 9.32704 8.54734 9.25412 8.69317C9.04058 9.13588 8.84266 9.5838 8.66037 10.0473C8.07704 10.0994 7.4937 10.1515 6.91037 10.1984C6.73329 10.2036 6.63433 10.2869 6.60829 10.464C6.58745 10.5942 6.68641 10.6932 6.76454 10.7817C6.96766 11.0057 7.18641 11.2192 7.39474 11.438Z" fill="#FFDE00"/>
</svg>
