<svg width="18" height="15" viewBox="0 0 18 15" fill="none" xmlns="http://www.w3.org/2000/svg">
<path d="M7.58984 1.53711H10.9232V2.39648H7.58984V1.53711Z" fill="#FFDE00"/>
<path d="M15.0885 9.33919H3.42188V5.31836H2.5625V11.4277C2.5625 11.9017 2.94792 12.2819 3.42188 12.2819H15.0885C15.5625 12.2819 15.9479 11.9017 15.9479 11.4277V5.31836H15.0885V9.33919ZM9.25521 11.9538C8.86458 11.9538 8.54167 11.6361 8.54167 11.2402C8.54167 10.8444 8.86458 10.5267 9.25521 10.5267C9.65104 10.5267 9.96875 10.8444 9.96875 11.2402C9.96875 11.6361 9.65104 11.9538 9.25521 11.9538Z" fill="#FFDE00"/>
<mask id="mask0_449_184" style="mask-type:luminance" maskUnits="userSpaceOnUse" x="5" y="11" width="8" height="4">
<path d="M5.88672 11.3281H12.5534V14.1406H5.88672V11.3281Z" fill="white"/>
</mask>
<g mask="url(#mask0_449_184)">
<path d="M7.63672 12.6348L6.37109 13.5931V14.041H12.1419V13.5931L10.8763 12.6348H7.63672Z" fill="#FFDE00"/>
</g>
<path d="M7.85074 7.27734C7.64762 7.38151 7.46533 7.51172 7.29345 7.66276C6.89241 7.23047 6.6372 6.66797 6.60074 6.04297C6.27262 5.80339 6.21533 5.75651 6.25178 5.78255C6.24658 5.8138 6.24658 5.83984 6.24658 5.87109C6.24658 7.53255 7.60074 8.88151 9.25699 8.88151C10.9132 8.88151 12.2674 7.53255 12.2674 5.87109C12.2674 5.83984 12.2674 5.80859 12.2622 5.78255C12.231 5.80859 11.7153 6.19401 11.9132 6.04297C11.8768 6.66276 11.6216 7.23047 11.2257 7.66276C11.0539 7.51172 10.8664 7.3763 10.6685 7.27214C10.7674 6.90234 10.8247 6.48568 10.8403 6.04297H11.2362C11.1007 5.97005 11.0018 5.84505 10.9549 5.69922H10.8403C10.8247 5.2513 10.7674 4.83464 10.6685 4.46484C10.757 4.41797 10.8403 4.36589 10.9237 4.30859V3.88151C10.8143 3.97526 10.6893 4.05859 10.5591 4.13151C10.4497 3.82422 10.3039 3.55859 10.1372 3.35547C10.4237 3.45443 10.6945 3.60026 10.9237 3.79818V3.36068C10.4393 3.03255 9.86116 2.85547 9.25699 2.85547C8.65283 2.85547 8.07991 3.03255 7.59033 3.36589V3.79818C7.8247 3.60026 8.09033 3.45443 8.37679 3.35547C8.21012 3.55859 8.06949 3.82422 7.95491 4.13151C7.8247 4.05859 7.6997 3.97526 7.59033 3.8763V4.30859C7.67366 4.36589 7.75699 4.41797 7.85074 4.46484C7.74658 4.83464 7.68928 5.2513 7.67887 5.69922H7.55908C7.5122 5.84505 7.41324 5.97005 7.28303 6.04297H7.67887C7.68928 6.48568 7.74658 6.90234 7.85074 7.27734ZM10.981 7.90234C10.7362 8.11068 10.4497 8.27214 10.1372 8.38151C10.3039 8.17839 10.4497 7.91276 10.5591 7.61068C10.7101 7.6888 10.8455 7.78776 10.981 7.90234ZM9.42887 3.23568C9.7622 3.33463 10.0487 3.72526 10.2466 4.28255C9.99137 4.38672 9.71533 4.44401 9.42887 4.46484V3.23568ZM9.42887 4.80859C9.75179 4.78776 10.0591 4.72526 10.3507 4.60547C10.4341 4.9388 10.4862 5.30859 10.4966 5.69922H9.42887V4.80859ZM9.42887 6.04297H10.4966C10.4862 6.42839 10.4341 6.79818 10.3507 7.1263C10.0591 7.01172 9.75179 6.94922 9.42887 6.93359V6.04297ZM9.42887 7.27734C9.71533 7.29297 9.99137 7.35547 10.2466 7.45443C10.0539 8.01172 9.7622 8.40755 9.42887 8.50651V7.27734ZM9.08512 8.50651C8.75699 8.40755 8.46533 8.01172 8.26741 7.45443C8.52783 7.35547 8.80387 7.29297 9.08512 7.27734V8.50651ZM9.08512 3.23568V4.46484C8.80387 4.44401 8.52783 4.38672 8.26741 4.28255C8.46533 3.72526 8.75699 3.33463 9.08512 3.23568ZM8.16845 4.61068C8.45491 4.72526 8.76741 4.78776 9.08512 4.80859V5.69922H8.01741C8.03304 5.30859 8.07991 4.9388 8.16845 4.61068ZM9.08512 6.04297V6.93359C8.76741 6.94922 8.46012 7.01693 8.16845 7.13151C8.07991 6.79818 8.03304 6.42839 8.01741 6.04297H9.08512ZM7.95491 7.60547C8.06949 7.91797 8.21012 8.17839 8.37679 8.38151C8.06949 8.27214 7.78304 8.11068 7.53303 7.90755C7.66845 7.79297 7.80908 7.69401 7.95491 7.60547Z" fill="#FFDE00"/>
<path d="M15.4727 3.43815H15.9727L16.1602 2.63086H15.4727V3.43815Z" fill="#FFDE00"/>
<mask id="mask1_449_184" style="mask-type:luminance" maskUnits="userSpaceOnUse" x="11" y="0" width="7" height="6">
<path d="M11.2188 0.140625H17.6875V5.99479H11.2188V0.140625Z" fill="white"/>
</mask>
<g mask="url(#mask1_449_184)">
<path d="M17.2669 0.125H11.7669C11.4961 0.125 11.2773 0.34375 11.2773 0.614583V5.52083C11.2773 5.70833 11.4857 5.82812 11.6471 5.73438L12.9648 4.96354H17.2669C17.5378 4.96354 17.7565 4.74479 17.7565 4.47396V0.614583C17.7565 0.34375 17.5378 0.125 17.2669 0.125ZM14.0273 4.31771C13.8242 4.31771 13.6576 4.15104 13.6576 3.94792C13.6576 3.84375 13.7044 3.75 13.7721 3.6875H14.293C14.3555 3.75 14.4023 3.84375 14.4023 3.94792C14.4023 4.15104 14.2357 4.31771 14.0273 4.31771ZM15.6107 4.31771C15.4076 4.31771 15.2461 4.15104 15.2461 3.94792C15.2461 3.84375 15.2878 3.75 15.3555 3.6875H15.8763C15.9388 3.75 15.9857 3.84375 15.9857 3.94792C15.9857 4.15104 15.819 4.31771 15.6107 4.31771ZM16.6836 1.47396L16.194 3.58854C16.1784 3.64583 16.1315 3.68229 16.0742 3.68229H13.5534C13.5378 3.68229 13.5221 3.68229 13.5117 3.67708C13.5065 3.67708 13.4961 3.67187 13.4909 3.66667C13.4857 3.66146 13.4805 3.66146 13.4753 3.65625C13.4701 3.65104 13.4648 3.64583 13.4596 3.64063C13.4544 3.63542 13.4492 3.63542 13.4492 3.63021C13.444 3.61979 13.4388 3.60938 13.4388 3.59896C13.4336 3.59896 13.4336 3.59375 13.4336 3.58854L12.8503 1.11458C12.8398 1.05729 12.7878 1.02083 12.7305 1.02083H12.4701C12.4023 1.02083 12.3503 0.963541 12.3503 0.895833C12.3503 0.828125 12.4023 0.770833 12.4701 0.770833H12.7305C12.9076 0.770833 13.0534 0.890625 13.0898 1.05729L13.1523 1.32292H16.5638C16.6003 1.32292 16.6367 1.34375 16.6628 1.36979C16.6836 1.40104 16.694 1.4375 16.6836 1.47396Z" fill="#FFDE00"/>
</g>
<path d="M15.4727 2.38151H16.2174L16.4049 1.57422H15.4727V2.38151Z" fill="#FFDE00"/>
<path d="M13.4023 2.38151H14.1523V1.57422H13.2148L13.4023 2.38151Z" fill="#FFDE00"/>
<path d="M14.3945 1.57422H15.2227V2.38151H14.3945V1.57422Z" fill="#FFDE00"/>
<path d="M13.6289 3.36003L13.6445 3.43815H14.1497V2.63086H13.457L13.6289 3.36003Z" fill="#FFDE00"/>
<path d="M14.3945 2.63086H15.2227V3.43815H14.3945V2.63086Z" fill="#FFDE00"/>
<mask id="mask2_449_184" style="mask-type:luminance" maskUnits="userSpaceOnUse" x="0" y="0" width="9" height="6">
<path d="M0.6875 0.140625H8.55208V5.99479H0.6875V0.140625Z" fill="white"/>
</mask>
<g mask="url(#mask2_449_184)">
<path d="M6.86328 5.73438C7.02474 5.82812 7.23307 5.71354 7.23307 5.52083V0.614583C7.23307 0.34375 7.01432 0.125 6.74349 0.125H1.24349C0.972656 0.125 0.753906 0.34375 0.753906 0.614583V4.47396C0.753906 4.74479 0.972656 4.96354 1.24349 4.96354H5.55078L6.86328 5.73438ZM1.16016 3.9375V1.15104C1.16016 0.84375 1.41016 0.59375 1.71745 0.59375H6.26953C6.57162 0.59375 6.82161 0.84375 6.82161 1.15104V3.9375C6.82161 4.23958 6.57162 4.49479 6.26953 4.49479H1.71745C1.41016 4.49479 1.16016 4.23958 1.16016 3.9375Z" fill="#FFDE00"/>
</g>
<mask id="mask3_449_184" style="mask-type:luminance" maskUnits="userSpaceOnUse" x="0" y="0" width="8" height="2">
<path d="M0.6875 0.662109H7.21875V1.99544H0.6875V0.662109Z" fill="white"/>
</mask>
<g mask="url(#mask3_449_184)">
<path d="M6.46875 1.15234C6.46875 1.04297 6.38021 0.949219 6.27083 0.949219H1.71875C1.60938 0.949219 1.51562 1.04297 1.51562 1.15234V1.35547H6.46875V1.15234Z" fill="#FFDE00"/>
</g>
<mask id="mask4_449_184" style="mask-type:luminance" maskUnits="userSpaceOnUse" x="0" y="0" width="8" height="4">
<path d="M0.6875 0.662109H7.21875V3.32878H0.6875V0.662109Z" fill="white"/>
</mask>
<g mask="url(#mask4_449_184)">
<path d="M1.51562 1.70898H6.46875V2.1569H1.51562V1.70898Z" fill="#FFDE00"/>
</g>
<mask id="mask5_449_184" style="mask-type:luminance" maskUnits="userSpaceOnUse" x="0" y="1" width="8" height="4">
<path d="M0.6875 1.99609H7.21875V4.66276H0.6875V1.99609Z" fill="white"/>
</mask>
<g mask="url(#mask5_449_184)">
<path d="M6.46875 3.9388V2.51172H1.51562V3.9388C1.51562 4.04818 1.60938 4.14193 1.71875 4.14193H6.27083C6.38021 4.14193 6.46875 4.04818 6.46875 3.9388ZM3.29688 3.45964H2.47396V3.15755H3.29688V3.45964ZM4.40625 3.45964H3.58333V3.15755H4.40625V3.45964ZM5.51563 3.45964H4.69271V3.15755H5.51563V3.45964Z" fill="#FFDE00"/>
</g>
</svg>
