<svg width="233" height="16" viewBox="0 0 233 16" fill="none" xmlns="http://www.w3.org/2000/svg">
<mask id="mask0_454_302" style="mask-type:luminance" maskUnits="userSpaceOnUse" x="168" y="0" width="23" height="16">
<path d="M168.184 0.662109H190.85V15.9382H168.184V0.662109Z" fill="white"/>
</mask>
<g mask="url(#mask0_454_302)">
<path d="M185.318 16.2194C188.057 16.2194 190.286 13.9954 190.286 11.3444C190.286 8.69336 188.057 6.4694 185.318 6.4694H185.146C185.573 5.27148 186.344 4.07357 187.974 2.87565L187.203 1.84961C182.057 4.58919 180.427 8.34961 180.427 11.3444C180.427 13.9954 182.656 16.2194 185.318 16.2194ZM173.656 16.2194C176.401 16.2194 178.63 13.9954 178.63 11.3444C178.63 8.69336 176.401 6.4694 173.656 6.4694H173.484C173.911 5.27148 174.682 4.07357 176.312 2.87565L175.542 1.84961C170.396 4.58919 168.766 8.34961 168.766 11.3444C168.766 13.9954 170.995 16.2194 173.656 16.2194Z" fill="black"/>
</g>
<mask id="mask1_454_302" style="mask-type:luminance" maskUnits="userSpaceOnUse" x="0" y="8" width="165" height="2">
<path d="M0 8H164.552V9.99479H0V8Z" fill="white"/>
</mask>
<g mask="url(#mask1_454_302)">
<path fill-rule="evenodd" clip-rule="evenodd" d="M1.09245 9.95478C0.498699 9.95478 0.0195312 9.59634 0.0195312 9.15219C0.0195312 8.70804 0.498699 8.3457 1.09245 8.3457H163.842C164.436 8.3457 164.921 8.70804 164.921 9.15219C164.921 9.59634 164.436 9.95478 163.842 9.95478H1.09245Z" fill="#FFDE00"/>
</g>
<mask id="mask2_454_302" style="mask-type:luminance" maskUnits="userSpaceOnUse" x="196" y="8" width="37" height="2">
<path d="M196 8H232.109V9.99479H196V8Z" fill="white"/>
</mask>
<g mask="url(#mask2_454_302)">
<path fill-rule="evenodd" clip-rule="evenodd" d="M197.156 9.95478C196.563 9.95478 196.078 9.59634 196.078 9.15219C196.078 8.70804 196.563 8.3457 197.156 8.3457H230.75C231.344 8.3457 231.828 8.70804 231.828 9.15219C231.828 9.59634 231.344 9.95478 230.75 9.95478H197.156Z" fill="#FFDE00"/>
</g>
</svg>
