<svg width="230" height="16" viewBox="0 0 230 16" fill="none" xmlns="http://www.w3.org/2000/svg">
<mask id="mask0_454_288" style="mask-type:luminance" maskUnits="userSpaceOnUse" x="40" y="0" width="23" height="16">
<path d="M40.1094 0.9375H62.776V15.6615H40.1094V0.9375Z" fill="white"/>
</mask>
<g mask="url(#mask0_454_288)">
<path d="M45.1302 0.9375C42.3854 0.9375 40.1562 3.16146 40.1562 5.8125C40.1562 8.46354 42.3854 10.6875 45.1302 10.6875H45.3021C44.875 11.8802 44.099 13.0781 42.474 14.276L43.2448 15.3021C48.3854 12.5677 50.0156 8.80208 50.0156 5.8125C50.0156 3.16146 47.7865 0.9375 45.1302 0.9375ZM56.7917 0.9375C54.0469 0.9375 51.8177 3.16146 51.8177 5.8125C51.8177 8.46354 54.0469 10.6875 56.7917 10.6875H56.9635C56.5312 11.8802 55.7604 13.0781 54.1302 14.276L54.9062 15.3021C60.0469 12.5677 61.6771 8.80208 61.6771 5.8125C61.6771 3.16146 59.4479 0.9375 56.7917 0.9375Z" fill="black"/>
</g>
<mask id="mask1_454_288" style="mask-type:luminance" maskUnits="userSpaceOnUse" x="0" y="7" width="37" height="2">
<path d="M0 7H36.1094V8.99479H0V7Z" fill="white"/>
</mask>
<g mask="url(#mask1_454_288)">
<path fill-rule="evenodd" clip-rule="evenodd" d="M1.15625 8.95478C0.562501 8.95478 0.078125 8.59634 0.078125 8.15219C0.078125 7.70804 0.562501 7.3457 1.15625 7.3457H34.75C35.3437 7.3457 35.8281 7.70804 35.8281 8.15219C35.8281 8.59634 35.3437 8.95478 34.75 8.95478H1.15625Z" fill="#FFDE00"/>
</g>
<mask id="mask2_454_288" style="mask-type:luminance" maskUnits="userSpaceOnUse" x="65" y="7" width="165" height="2">
<path d="M65.4414 7H229.993V8.99479H65.4414V7Z" fill="white"/>
</mask>
<g mask="url(#mask2_454_288)">
<path fill-rule="evenodd" clip-rule="evenodd" d="M66.5339 8.95478C65.9401 8.95478 65.4609 8.59634 65.4609 8.15219C65.4609 7.70804 65.9401 7.3457 66.5339 7.3457H229.284C229.878 7.3457 230.362 7.70804 230.362 8.15219C230.362 8.59634 229.878 8.95478 229.284 8.95478H66.5339Z" fill="#FFDE00"/>
</g>
</svg>
