<svg width="18" height="16" viewBox="0 0 18 16" fill="none" xmlns="http://www.w3.org/2000/svg">
<mask id="mask0_449_287" style="mask-type:luminance" maskUnits="userSpaceOnUse" x="6" y="0" width="6" height="4">
<path d="M6.21875 0.0371094H11.5521V3.99544H6.21875V0.0371094Z" fill="white"/>
</mask>
<g mask="url(#mask0_449_287)">
<path d="M8.82813 0.0371094C7.78646 0.0371094 6.9375 0.886068 6.9375 1.93294C6.9375 2.97461 7.78646 3.82357 8.82813 3.82357C9.875 3.82357 10.724 2.97461 10.724 1.93294C10.724 0.886068 9.875 0.0371094 8.82813 0.0371094Z" fill="#FFDE00"/>
</g>
<path d="M12.6979 1.76172C11.8125 1.76172 11.0938 2.48047 11.0938 3.36068C11.0938 4.24609 11.8125 4.96484 12.6979 4.96484C13.5781 4.96484 14.2969 4.24609 14.2969 3.36068C14.2969 2.48047 13.5781 1.76172 12.6979 1.76172Z" fill="#FFDE00"/>
<path d="M4.90755 1.76172C4.02734 1.76172 3.30859 2.48047 3.30859 3.36068C3.30859 4.24609 4.02734 4.96484 4.90755 4.96484C5.79297 4.96484 6.51172 4.24609 6.51172 3.36068C6.51172 2.48047 5.79297 1.76172 4.90755 1.76172Z" fill="#FFDE00"/>
<mask id="mask1_449_287" style="mask-type:luminance" maskUnits="userSpaceOnUse" x="0" y="8" width="18" height="8">
<path d="M0.285156 8.9375H17.2539V15.0365H0.285156V8.9375Z" fill="white"/>
</mask>
<g mask="url(#mask1_449_287)">
<path d="M17.2079 11.0575C16.9735 10.2866 16.1037 10.021 15.3433 10.2398L12.385 11.1408C12.3068 11.1616 12.2756 11.2554 12.3225 11.3179C12.5725 11.6825 12.6558 12.1721 12.4891 12.6252C12.2183 13.3544 11.4006 13.7241 10.687 13.4585L7.78079 12.37C7.71829 12.3491 7.68704 12.2762 7.71308 12.2137C7.73913 12.1564 7.80683 12.1252 7.86413 12.1512L10.7287 13.2189C11.3433 13.4481 12.036 13.146 12.26 12.5314C12.51 11.8648 12.1298 11.2241 11.4579 10.9741L6.71829 9.20331C6.04121 8.92206 5.30163 8.88039 4.56204 9.15123L1.71308 10.1669C0.838085 10.4794 0.25996 11.3179 0.286001 12.2502C0.327668 13.6877 1.74954 14.6825 3.11413 14.2241C3.70788 14.0262 4.25996 13.8804 4.60371 13.8804C6.11413 13.8908 8.04642 14.9741 8.70788 15.2085C9.12454 15.3544 9.39017 15.3544 9.76517 15.2085C9.89538 15.1564 10.0256 15.1096 10.1662 15.0679C10.1662 15.0679 10.1714 15.0679 10.1766 15.0627L16.1298 12.5887C16.135 12.5887 16.1402 12.5887 16.1402 12.5835C16.9006 12.3648 17.4162 11.7398 17.2079 11.0575Z" fill="#FFDE00"/>
</g>
<path d="M14.3477 6.13151C13.9102 5.69401 13.3216 5.44922 12.6966 5.44922C12.207 5.44922 11.7331 5.60026 11.3372 5.88151C11.2018 5.60547 11.0247 5.35026 10.8008 5.1263C10.2747 4.60026 9.57162 4.30859 8.82682 4.30859C8.08203 4.30859 7.38411 4.60026 6.85807 5.1263C6.6237 5.35547 6.44141 5.62109 6.30078 5.91276C5.89974 5.61068 5.41537 5.44922 4.90495 5.44922C4.27995 5.44922 3.69661 5.69401 3.25391 6.13151C2.8112 6.57422 2.56641 7.16276 2.56641 7.78776V8.94922C2.56641 9.16276 2.59766 9.37109 2.64974 9.56901L4.59245 8.8763C5.04557 8.71484 5.4987 8.66276 5.94141 8.72005V7.65755C5.94141 7.32943 5.9987 7.00651 6.10807 6.69922C6.13932 6.61068 6.22786 6.56901 6.3112 6.60026C6.39453 6.63151 6.44141 6.72005 6.41016 6.80339C6.3112 7.07943 6.26432 7.36589 6.26432 7.65755V8.77214C6.42578 8.8138 6.58724 8.86589 6.7487 8.93359L10.8164 10.4492C10.8164 10.4492 10.8685 10.4701 10.9518 10.5065C11.2122 10.0951 11.3529 9.6263 11.3529 9.13151V7.65755C11.3529 7.35026 11.2956 7.04818 11.1862 6.76172C11.1549 6.67839 11.1966 6.58463 11.2799 6.55339C11.3633 6.52213 11.457 6.5638 11.4883 6.64714C11.6081 6.97005 11.6706 7.30859 11.6706 7.65755V9.13151C11.6706 9.45964 11.6185 9.78255 11.5091 10.0898C11.4414 10.2773 11.3529 10.4596 11.2539 10.6263C11.4831 10.7201 11.7279 10.819 11.7747 10.8398C12.0352 10.9701 12.3372 10.8919 12.4154 10.8659L14.6862 10.1784C14.9154 9.8138 15.0352 9.39193 15.0352 8.94922V7.78776C15.0352 7.16276 14.7904 6.57422 14.3477 6.13151Z" fill="#FFDE00"/>
</svg>
