<svg width="13" height="13" viewBox="0 0 13 13" fill="none" xmlns="http://www.w3.org/2000/svg">
<mask id="mask0_424_14" style="mask-type:luminance" maskUnits="userSpaceOnUse" x="0" y="0" width="13" height="13">
<path d="M0 0.359375H13V12.3594H0V0.359375Z" fill="white"/>
</mask>
<g mask="url(#mask0_424_14)">
<path d="M10.6055 11.9694H0.449219C0.00130192 11.9694 0.00130192 11.2975 0.449219 11.2975H10.6055C11.0534 11.2975 11.0534 11.9694 10.6055 11.9694ZM0.876303 5.92253C1.1263 5.92253 0.938803 6.00586 5.8763 2.25586C10.8138 6.00586 10.6263 5.92253 10.8763 5.92253C11.3555 5.92253 11.5638 5.31315 11.1784 5.01628C5.94401 1.04753 6.12109 1.12044 5.8763 1.12044C5.63151 1.12044 5.8138 1.04232 0.574219 5.01628C0.188802 5.30794 0.397136 5.92253 0.876303 5.92253ZM9.94401 7.52148C7.41797 6.08398 7.56901 6.15169 7.39714 6.12044C7.25651 5.72982 6.86068 5.42773 6.28255 5.51628C6.23047 5.52148 6.23568 5.53711 6.15755 5.44336C6.0638 5.32878 5.92839 5.26107 5.7513 5.26628C5.11068 5.27669 4.9961 6.43815 5.36068 6.99544C5.58984 7.34961 6.06901 7.58398 6.49089 7.54232C6.60026 7.69857 6.64714 7.70378 7.5638 8.28711C7.60547 8.31315 7.65755 8.33398 7.70443 8.34961C7.78255 8.44336 7.69922 8.37565 9.94401 9.80273V10.0736C9.94401 10.4538 9.63151 10.7663 9.2513 10.7663H2.22005C1.83464 10.7663 1.52214 10.4538 1.52214 10.0736V6.54753C1.52214 6.32357 1.63151 6.11523 1.80859 5.98503L5.38672 3.34961C5.63672 3.16732 5.97526 3.17253 6.22005 3.36003L9.66797 5.98503C10.0273 6.25586 9.94401 6.58919 9.94401 7.52148ZM4.5013 7.67253L4.32943 7.14128C4.18359 6.67253 3.51693 6.67253 3.36589 7.14128L3.19401 7.67253C2.84505 7.8444 2.51693 7.93815 2.51693 8.32357C2.51693 8.70899 2.85026 8.80273 3.19401 8.97461L3.36589 9.50065C3.51693 9.9694 4.18359 9.9694 4.32943 9.50065L4.5013 8.97461C4.84505 8.80273 5.17839 8.70899 5.17839 8.32357C5.17839 7.93815 4.84505 7.8444 4.5013 7.67253ZM1.60547 1.98503H1.73047V3.2194L3.65234 1.76107V1.27148C3.65234 1.18815 3.58984 1.12044 3.50651 1.12044H1.60547C1.52214 1.12044 1.45443 1.18815 1.45443 1.27148V1.83919C1.45443 1.91732 1.52214 1.98503 1.60547 1.98503ZM6.96484 7.30794L7.83464 7.86003L8.26172 7.14648L7.36589 6.64128C7.2513 6.57357 7.10547 6.61003 7.03776 6.72461L6.88672 6.97461C6.81901 7.08919 6.85547 7.23503 6.96484 7.30794ZM12.4232 9.51107L8.52214 7.29753L8.08984 8.02148L11.8711 10.4277C11.9857 10.5007 12.1367 10.4694 12.2096 10.3496L12.5117 9.84961C12.5794 9.72982 12.543 9.57878 12.4232 9.51107ZM6.93359 6.32357C6.88672 6.1569 6.72526 6.02148 6.54818 6.00586C6.28776 5.98503 6.11068 6.17253 5.77214 5.77148C5.65234 5.93815 5.60026 6.43294 5.78255 6.7194C5.91276 6.91732 6.26693 7.10482 6.54297 7.02148C6.78776 6.94857 7.0013 6.57357 6.93359 6.32357ZM3.84505 7.29753L3.61068 8.02669L3.02734 8.32357L3.61068 8.62044L3.84505 9.34961L4.08464 8.62044L4.66797 8.32357L4.08464 8.02669L3.84505 7.29753ZM8.67318 2.41732L8.90755 1.68294L9.49609 1.39128L8.90755 1.0944L8.67318 0.365234L8.4388 1.0944L7.85547 1.39128L8.4388 1.68294L8.67318 2.41732ZM10.5586 7.29753L11.1471 7.5944L11.3815 8.32357L11.6159 7.5944L12.1992 7.29753L11.6159 7.00586L11.3815 6.27148L11.1471 7.00586L10.5586 7.29753Z" fill="#38B6FF"/>
</g>
</svg>
