<svg width="18" height="17" viewBox="0 0 18 17" fill="none" xmlns="http://www.w3.org/2000/svg">
<mask id="mask0_424_9" style="mask-type:luminance" maskUnits="userSpaceOnUse" x="0" y="0" width="18" height="17">
<path d="M0 0.824219H18V16.8242H0V0.824219Z" fill="white"/>
</mask>
<g mask="url(#mask0_424_9)">
<path fill-rule="evenodd" clip-rule="evenodd" d="M17.9479 4.69987L16.6667 1.18424C16.5885 0.970702 16.3854 0.830078 16.1563 0.830078H14.1875C13.9583 0.830078 13.7552 0.970702 13.6771 1.18424L12.3958 4.69987C12.2656 5.05404 12.526 5.42904 12.9063 5.42904H14.8698C14.8906 5.42904 14.9063 5.44466 14.9063 5.46549V15.1999H14.3333C14.026 15.1999 13.7813 15.4447 13.7813 15.7467V16.6947H16.5625V15.7467C16.5625 15.4447 16.3177 15.1999 16.0156 15.1999H15.4375V5.46549C15.4375 5.44466 15.4531 5.42904 15.474 5.42904H17.4375C17.8177 5.42904 18.0781 5.05404 17.9479 4.69987ZM11.6667 9.2207C11.1146 9.2207 10.6667 9.66862 10.6667 10.2207V11.9759C10.6667 12.3874 10.3333 12.7207 9.92188 12.7207H2.75C2.33854 12.7207 2.00521 12.3874 2.00521 11.9759V10.2207C2.00521 9.66862 1.55729 9.2207 1.00521 9.2207C0.447916 9.2207 0 9.66862 0 10.2207V15.6947C0 16.2467 0.447916 16.6947 1.00521 16.6947C1.55729 16.6947 2.00521 16.2467 2.00521 15.6947H10.6667C10.6667 16.2467 11.1146 16.6947 11.6667 16.6947C12.2188 16.6947 12.6667 16.2467 12.6667 15.6947V10.2207C12.6667 9.66862 12.2188 9.2207 11.6667 9.2207ZM9.02604 12.2363H3.64063C2.98437 12.2363 2.44792 11.7051 2.44792 11.0436V7.39779C2.44792 6.73633 2.98437 6.20508 3.64063 6.20508H9.02604C9.6875 6.20508 10.2188 6.73633 10.2188 7.39779V11.0436C10.2188 11.7051 9.6875 12.2363 9.02604 12.2363Z" fill="white"/>
</g>
</svg>
