<svg width="16" height="15" viewBox="0 0 16 15" fill="none" xmlns="http://www.w3.org/2000/svg">
<mask id="mask0_424_32" style="mask-type:luminance" maskUnits="userSpaceOnUse" x="5" y="0" width="7" height="5">
<path d="M5.90625 0.046875H11.2396V4.40104H5.90625V0.046875Z" fill="white"/>
</mask>
<g mask="url(#mask0_424_32)">
<path d="M8.29167 0.046875C7.27604 0.046875 6.45312 0.869791 6.45312 1.88021C6.45312 2.89583 7.27604 3.71875 8.29167 3.71875C9.30208 3.71875 10.125 2.89583 10.125 1.88021C10.125 0.869791 9.30208 0.046875 8.29167 0.046875Z" fill="#38B6FF"/>
</g>
<path d="M12.0404 1.71875C11.1862 1.71875 10.4883 2.41667 10.4883 3.27083C10.4883 4.13021 11.1862 4.82292 12.0404 4.82292C12.8997 4.82292 13.5924 4.13021 13.5924 3.27083C13.5924 2.41667 12.8997 1.71875 12.0404 1.71875Z" fill="#38B6FF"/>
<path d="M4.48568 1.71875C3.6263 1.71875 2.93359 2.41667 2.93359 3.27083C2.93359 4.13021 3.6263 4.82292 4.48568 4.82292C5.33984 4.82292 6.03776 4.13021 6.03776 3.27083C6.03776 2.41667 5.33984 1.71875 4.48568 1.71875Z" fill="#38B6FF"/>
<mask id="mask1_424_32" style="mask-type:luminance" maskUnits="userSpaceOnUse" x="0" y="8" width="16" height="7">
<path d="M0 8.68359H16V14.8763H0V8.68359Z" fill="white"/>
</mask>
<g mask="url(#mask1_424_32)">
<path d="M16.4228 10.7403C16.1936 9.9903 15.3498 9.73509 14.6155 9.94863L11.7405 10.8184C11.6675 10.8445 11.6363 10.933 11.678 10.9955C11.9228 11.3497 12.0061 11.8236 11.8446 12.2611C11.579 12.9695 10.7873 13.3288 10.0946 13.0736L7.27171 12.0163C7.20921 11.9955 7.18317 11.9226 7.20921 11.8653C7.23004 11.808 7.29775 11.782 7.35504 11.8028L10.1363 12.8393C10.73 13.0632 11.4019 12.7663 11.6207 12.1726C11.8603 11.5215 11.4905 10.9018 10.8394 10.657L6.24046 8.94342C5.58421 8.66738 4.86546 8.63092 4.14671 8.89134L1.38108 9.87572C0.532125 10.1778 -0.0251662 10.9955 0.000875181 11.8965C0.0425419 13.2976 1.41754 14.2611 2.74567 13.8132C3.31858 13.6205 3.85504 13.4799 4.18838 13.4799C5.65713 13.4955 7.53213 14.5424 8.17275 14.7663C8.579 14.9122 8.83421 14.9122 9.19879 14.7715C9.32379 14.7195 9.454 14.6726 9.58421 14.6361C9.58942 14.6309 9.59463 14.6309 9.59463 14.6309L15.3759 12.2299C15.3811 12.2247 15.3863 12.2247 15.3863 12.2247C16.1259 12.0059 16.6259 11.407 16.4228 10.7403Z" fill="#38B6FF"/>
</g>
<path d="M13.6471 5.96354C13.2201 5.53125 12.6523 5.29688 12.043 5.29688C11.569 5.29688 11.1107 5.44271 10.7253 5.71875C10.5951 5.44792 10.4232 5.19792 10.2044 4.98438C9.69401 4.47396 9.01172 4.1875 8.29297 4.1875C7.56901 4.1875 6.88672 4.47396 6.3763 4.98438C6.15234 5.20833 5.97005 5.46354 5.83984 5.74479C5.44922 5.45313 4.98047 5.29688 4.48568 5.29688C3.8763 5.29688 3.30859 5.53125 2.88151 5.96354C2.44922 6.39063 2.21484 6.95833 2.21484 7.56771V8.69271C2.21484 8.90104 2.24089 9.10417 2.29297 9.29688L4.17839 8.625C4.62109 8.46354 5.05859 8.41667 5.49089 8.46875V7.44271C5.49089 7.11979 5.54297 6.80729 5.65234 6.50521C5.67839 6.42708 5.76693 6.38542 5.85026 6.41146C5.92839 6.44271 5.97005 6.53125 5.94401 6.61458C5.85026 6.875 5.80339 7.15625 5.80339 7.44271V8.52604C5.95963 8.5625 6.12109 8.61458 6.27214 8.67708L10.2201 10.151C10.2201 10.151 10.2721 10.1719 10.3503 10.2031C10.6055 9.80729 10.7409 9.34896 10.7409 8.86979V7.44271C10.7409 7.14063 10.6836 6.84896 10.5794 6.56771C10.5482 6.48958 10.5898 6.39583 10.6732 6.36458C10.7513 6.33854 10.8398 6.375 10.8711 6.45833C10.9909 6.77083 11.0534 7.10417 11.0534 7.44271V8.86979C11.0534 9.19271 10.9961 9.50521 10.8919 9.80208C10.8242 9.98438 10.7461 10.1563 10.6419 10.3229C10.8659 10.4115 11.1003 10.5104 11.1471 10.5313C11.4023 10.6563 11.694 10.5781 11.7721 10.5573L13.9753 9.88542C14.194 9.53125 14.3138 9.11979 14.3138 8.69271V7.56771C14.3138 6.95833 14.0794 6.39063 13.6471 5.96354Z" fill="#38B6FF"/>
</svg>
