<svg width="16" height="13" viewBox="0 0 16 13" fill="none" xmlns="http://www.w3.org/2000/svg">
<mask id="mask0_397_38" style="mask-type:luminance" maskUnits="userSpaceOnUse" x="0" y="6" width="7" height="7">
<path d="M0 6.49414H6.66667V12.9993H0V6.49414Z" fill="white"/>
</mask>
<g mask="url(#mask0_397_38)">
<path d="M0.184841 6.80594C0.184841 6.80594 6.13797 6.39969 6.17963 12.8007C-0.221408 12.7591 0.184841 6.80594 0.184841 6.80594Z" fill="#E2A9F1"/>
</g>
<mask id="mask1_397_38" style="mask-type:luminance" maskUnits="userSpaceOnUse" x="4" y="0" width="6" height="10">
<path d="M4 0H9.33333V9.16146H4V0Z" fill="white"/>
</mask>
<g mask="url(#mask1_397_38)">
<path d="M7.27344 0.509766C7.27344 0.509766 11.7734 4.42643 7.27344 8.98372C2.77344 4.42643 7.27344 0.509766 7.27344 0.509766Z" fill="#E2A9F1"/>
</g>
<mask id="mask2_397_38" style="mask-type:luminance" maskUnits="userSpaceOnUse" x="8" y="6" width="7" height="7">
<path d="M8 6.49414H14.6667V12.9993H8V6.49414Z" fill="white"/>
</mask>
<g mask="url(#mask2_397_38)">
<path d="M14.5339 6.80594C14.5339 6.80594 8.58073 6.39969 8.53906 12.8007C14.9401 12.7591 14.5339 6.80594 14.5339 6.80594Z" fill="#E2A9F1"/>
</g>
<mask id="mask3_397_38" style="mask-type:luminance" maskUnits="userSpaceOnUse" x="0" y="5" width="7" height="8">
<path d="M0 5.16016H6.98438V12.9987H0V5.16016Z" fill="white"/>
</mask>
<g mask="url(#mask3_397_38)">
<path d="M6.84173 13.1497L6.49277 13.1445C4.42506 13.1341 2.82089 12.5247 1.71673 11.3372C-0.00723124 9.47266 0.149019 6.88932 0.154227 6.77995L0.175061 6.48307L0.477144 6.46224C0.477144 6.46224 0.560478 6.45703 0.711519 6.45703C1.72714 6.45703 6.80006 6.75912 6.84173 12.7956V13.1497ZM0.841727 7.14974C0.862561 7.85286 1.03964 9.58724 2.23235 10.8685C3.13339 11.8424 4.4511 12.3685 6.1386 12.4466C5.93027 7.70182 2.21152 7.17578 0.841727 7.14974Z" fill="#E2A9F1"/>
</g>
<mask id="mask4_397_38" style="mask-type:luminance" maskUnits="userSpaceOnUse" x="4" y="0" width="7" height="11">
<path d="M4.32812 0H10.9948V10.4948H4.32812V0Z" fill="white"/>
</mask>
<g mask="url(#mask4_397_38)">
<path d="M7.6048 9.47917L7.36001 9.22917C5.90688 7.76042 5.20376 6.19271 5.26105 4.57292C5.36001 2.03646 7.2923 0.317709 7.37563 0.244792L7.6048 0.046875L7.83397 0.244792C7.91209 0.317709 9.84959 2.03646 9.94855 4.57292C10.0058 6.19271 9.30272 7.76042 7.84959 9.22917L7.6048 9.47917ZM7.6048 0.994792C7.12043 1.50521 6.01626 2.85938 5.95376 4.60417C5.90688 5.93229 6.45897 7.23438 7.6048 8.48438C8.74543 7.23438 9.30272 5.93229 9.25584 4.60417C9.19334 2.85938 8.08918 1.50521 7.6048 0.994792Z" fill="#E2A9F1"/>
</g>
<mask id="mask5_397_38" style="mask-type:luminance" maskUnits="userSpaceOnUse" x="8" y="5" width="8" height="8">
<path d="M8.32812 5.16016H15.0104V12.9987H8.32812V5.16016Z" fill="white"/>
</mask>
<g mask="url(#mask5_397_38)">
<path d="M8.52344 13.1497V12.7956C8.5651 6.75912 13.638 6.45703 14.6536 6.45703C14.8047 6.45703 14.888 6.46224 14.888 6.46224L15.1901 6.48307L15.2109 6.77995C15.2161 6.88932 15.3724 9.47266 13.6484 11.3372C12.5443 12.5247 10.9401 13.1341 8.8724 13.1445L8.52344 13.1497ZM14.5234 7.14974C13.1589 7.17578 9.4349 7.69661 9.22656 12.4466C10.9193 12.3685 12.237 11.8424 13.138 10.8633C14.3307 9.58203 14.5026 7.85286 14.5234 7.14974Z" fill="#E2A9F1"/>
</g>
</svg>
