<svg width="801" height="238" viewBox="0 0 801 238" fill="none" xmlns="http://www.w3.org/2000/svg">
<path d="M794.904 209.109C794.904 212.093 794.315 215.048 793.172 217.805C792.029 220.562 790.354 223.066 788.242 225.175C786.13 227.284 783.624 228.956 780.865 230.096C778.106 231.236 775.15 231.821 772.165 231.818H28.0453C22.0142 231.824 16.2275 229.435 11.9579 225.177C7.68819 220.918 5.2852 215.139 5.27734 209.109V28.0156C5.2852 21.9833 7.68724 16.2007 11.956 11.9375C16.2249 7.67429 22.0115 5.27891 28.0453 5.27734H772.159C775.146 5.27734 778.103 5.86553 780.862 7.0083C783.621 8.15108 786.128 9.82606 788.24 11.9376C790.351 14.0491 792.026 16.5558 793.169 19.3145C794.311 22.0732 794.898 25.0298 794.898 28.0156L794.904 209.109Z" fill="white"/>
<path d="M772.166 237.1H28.0463C20.6167 237.099 13.4911 234.151 8.23306 228.903C2.97506 223.655 0.0141366 216.536 0 209.109L0 28.0211C0.0109911 20.5897 2.96996 13.4661 8.22779 8.21304C13.4856 2.95993 20.613 0.00627235 28.0463 0L772.16 0C779.593 0.00940211 786.718 2.96407 791.975 8.2165C797.233 13.4689 800.192 20.5907 800.207 28.0211V209.109C800.218 224.548 787.616 237.1 772.166 237.1Z" fill="#A6A6A6"/>
<path d="M794.904 209.109C794.904 212.093 794.315 215.048 793.172 217.805C792.029 220.562 790.354 223.066 788.242 225.175C786.13 227.284 783.624 228.956 780.865 230.096C778.106 231.236 775.15 231.821 772.165 231.818H28.0453C22.0142 231.824 16.2275 229.435 11.9579 225.177C7.68819 220.918 5.2852 215.139 5.27734 209.109V28.0156C5.2852 21.9833 7.68724 16.2007 11.956 11.9375C16.2249 7.67429 22.0115 5.27891 28.0453 5.27734H772.159C775.146 5.27734 778.103 5.86553 780.862 7.0083C783.621 8.15108 786.128 9.82606 788.24 11.9376C790.351 14.0491 792.026 16.5558 793.169 19.3145C794.311 22.0732 794.898 25.0298 794.898 28.0156L794.904 209.109Z" fill="black"/>
<path d="M178.679 117.302C178.507 98.1923 194.33 88.8954 195.053 88.4626C186.092 75.4007 172.202 73.616 167.321 73.4737C155.656 72.2464 144.34 80.4523 138.397 80.4523C132.336 80.4523 123.185 73.5923 113.322 73.7939C100.63 73.9896 88.7572 81.3358 82.2453 92.7434C68.8063 116.003 78.8292 150.185 91.7048 168.986C98.1455 178.2 105.672 188.475 115.522 188.114C125.16 187.722 128.76 181.977 140.39 181.977C151.913 181.977 155.294 188.114 165.34 187.882C175.684 187.722 182.195 178.633 188.411 169.342C195.854 158.794 198.843 148.394 198.962 147.861C198.724 147.778 178.88 140.2 178.679 117.302ZM159.7 61.1056C164.884 54.625 168.43 45.8084 167.446 36.8613C159.943 37.1934 150.561 42.0493 145.158 48.3876C140.378 53.9728 136.108 63.1274 137.211 71.7365C145.639 72.365 154.292 67.4853 159.7 61.1056Z" fill="white"/>
<path d="M772.167 0H373.594L529.708 237.1H772.167C779.598 237.094 786.724 234.142 791.981 228.891C797.239 223.641 800.199 216.52 800.213 209.091V28.0211C800.201 20.5902 797.241 13.4675 791.984 8.21477C786.726 2.962 779.6 0.00783783 772.167 0Z" fill="url(#paint0_linear_533_30)"/>
<path d="M318.272 186.792H304.803L297.426 163.615H271.781L264.753 186.792H251.641L277.054 107.887H292.746L318.272 186.792ZM295.202 153.891L288.53 133.287C287.824 131.182 286.495 126.226 284.55 118.423H284.313C283.53 121.779 282.279 126.736 280.565 133.287L274.005 153.891H295.202ZM383.498 157.644C383.498 167.32 380.871 174.969 375.61 180.584C370.901 185.582 365.048 188.078 358.067 188.078C350.529 188.078 345.109 185.392 341.817 180.009V209.862H329.173V148.596C329.173 142.519 329.013 136.287 328.704 129.896H339.824L340.53 138.914H340.767C344.984 132.119 351.383 128.722 359.971 128.722C366.684 128.722 372.289 131.372 376.773 136.679C381.25 141.997 383.498 148.982 383.498 157.644ZM370.617 158.107C370.617 152.569 369.371 148.003 366.868 144.404C364.134 140.663 360.463 138.789 355.861 138.789C352.741 138.789 349.907 139.833 347.374 141.89C344.836 143.966 343.175 146.675 342.398 150.031C342.051 151.286 341.854 152.578 341.811 153.879V163.372C341.811 167.504 343.08 170.997 345.619 173.854C348.157 176.7 351.454 178.129 355.511 178.129C360.273 178.129 363.98 176.285 366.631 172.627C369.288 168.957 370.617 164.119 370.617 158.107ZM448.955 157.644C448.955 167.32 446.328 174.969 441.067 180.584C436.353 185.582 430.505 188.078 423.518 188.078C415.981 188.078 410.56 185.392 407.268 180.009V209.862H394.624V148.596C394.624 142.519 394.464 136.287 394.156 129.896H405.276L405.981 138.914H406.219C410.429 132.119 416.829 128.722 425.422 128.722C432.13 128.722 437.734 131.372 442.23 136.679C446.702 141.997 448.955 148.982 448.955 157.644ZM436.068 158.107C436.068 152.569 434.816 148.003 432.314 144.404C429.58 140.663 425.92 138.789 421.318 138.789C418.199 138.789 415.364 139.833 412.819 141.89C410.281 143.966 408.626 146.675 407.85 150.031C407.464 151.596 407.256 152.871 407.256 153.879V163.372C407.256 167.504 408.532 170.997 411.058 173.854C413.596 176.694 416.894 178.129 420.962 178.129C425.731 178.129 429.437 176.285 432.082 172.627C434.739 168.957 436.068 164.119 436.068 158.107ZM522.14 164.658C522.14 171.376 519.792 176.837 515.124 181.052C509.988 185.653 502.818 187.96 493.625 187.96C485.133 187.96 478.324 186.323 473.188 183.045L476.112 172.508C481.657 175.793 487.748 177.43 494.379 177.43C499.147 177.43 502.854 176.351 505.499 174.21C508.15 172.064 509.49 169.194 509.49 165.613C509.49 162.405 508.381 159.719 506.204 157.531C504.016 155.35 500.398 153.316 495.316 151.448C481.497 146.296 474.582 138.76 474.582 128.846C474.582 122.372 477.025 117.071 481.9 112.927C486.775 108.788 493.24 106.719 501.282 106.719C508.464 106.719 514.448 107.97 519.199 110.466L516.026 120.771C511.554 118.352 506.507 117.142 500.861 117.142C496.401 117.142 492.902 118.239 490.399 120.421C488.294 122.372 487.226 124.749 487.226 127.572C487.226 130.684 488.442 133.269 490.862 135.297C492.961 137.165 496.792 139.199 502.332 141.38C509.128 144.12 514.122 147.31 517.319 150.974C520.539 154.638 522.14 159.209 522.14 164.658ZM564.053 139.382H550.115V167.006C550.115 174.032 552.571 177.536 557.493 177.536C559.753 177.536 561.627 177.347 563.11 176.949L563.459 186.549C560.969 187.48 557.689 187.948 553.626 187.948C548.633 187.948 544.73 186.424 541.913 183.377C539.108 180.329 537.696 175.224 537.696 168.038V139.359H529.393V129.872H537.696V119.455L550.115 115.707V129.872H564.053V139.382ZM626.811 157.875C626.811 166.621 624.309 173.801 619.315 179.416C614.09 185.197 607.139 188.078 598.474 188.078C590.112 188.078 583.464 185.309 578.506 179.778C573.548 174.234 571.069 167.249 571.069 158.824C571.069 150.007 573.631 142.786 578.737 137.171C583.855 131.55 590.747 128.74 599.411 128.74C607.762 128.74 614.469 131.514 619.546 137.052C624.397 142.424 626.811 149.361 626.811 157.875ZM613.704 158.166C613.704 152.954 612.578 148.484 610.318 144.742C607.667 140.224 603.871 137.965 598.955 137.965C593.89 137.965 590.005 140.224 587.36 144.742C585.095 148.484 583.968 153.031 583.968 158.403C583.968 163.621 585.095 168.103 587.36 171.833C590.094 176.351 593.908 178.61 598.848 178.61C603.681 178.61 607.471 176.303 610.211 171.72C612.536 167.89 613.704 163.389 613.704 158.166ZM667.929 141.013C666.614 140.776 665.28 140.658 663.943 140.663C659.495 140.663 656.056 142.335 653.636 145.703C651.536 148.667 650.481 152.415 650.481 156.939V186.792H637.836V147.814C637.848 141.841 637.725 135.869 637.469 129.902H648.482L648.945 140.788H649.295C650.635 137.046 652.734 134.028 655.617 131.769C658.255 129.795 661.461 128.726 664.756 128.722C665.924 128.722 666.98 128.805 667.917 128.953L667.929 141.013ZM724.478 155.652C724.51 157.574 724.355 159.494 724.016 161.385H686.083C686.225 167.006 688.064 171.311 691.586 174.275C694.783 176.92 698.917 178.248 703.993 178.248C709.61 178.248 714.734 177.358 719.342 175.562L721.323 184.331C715.938 186.679 709.58 187.847 702.244 187.847C693.419 187.847 686.492 185.25 681.451 180.068C676.422 174.88 673.901 167.907 673.901 159.174C673.901 150.6 676.244 143.456 680.935 137.758C685.846 131.674 692.482 128.633 700.832 128.633C709.035 128.633 715.244 131.674 719.461 137.758C722.8 142.578 724.478 148.555 724.478 155.652ZM712.421 152.373C712.51 148.62 711.68 145.389 709.966 142.655C707.777 139.133 704.409 137.378 699.895 137.378C695.762 137.378 692.393 139.092 689.831 142.531C687.726 145.264 686.474 148.549 686.089 152.361L712.421 152.373Z" fill="white"/>
<path d="M268.135 79.9899C264.618 79.9899 261.575 79.8179 259.043 79.5274V41.3793C262.585 40.8323 266.164 40.5627 269.748 40.573C284.248 40.573 290.926 47.7057 290.926 59.3328C290.926 72.7445 283.039 79.9899 268.135 79.9899ZM270.258 45.4645C268.301 45.4645 266.634 45.5831 265.252 45.8677V74.8671C266 74.9857 267.435 75.039 269.451 75.039C278.952 75.039 284.361 69.6317 284.361 59.5047C284.361 50.4746 279.468 45.4645 270.258 45.4645ZM311.737 80.2804C303.565 80.2804 298.269 74.1793 298.269 65.8963C298.269 57.2635 303.677 51.109 312.2 51.109C320.254 51.109 325.669 56.9196 325.669 65.4398C325.669 74.1793 320.088 80.2804 311.737 80.2804ZM311.975 55.6508C307.485 55.6508 304.609 59.8486 304.609 65.7184C304.609 71.4756 307.544 75.6735 311.915 75.6735C316.286 75.6735 319.222 71.1851 319.222 65.5999C319.222 59.9079 316.345 55.6508 311.975 55.6508ZM372.272 51.6842L363.524 79.646H357.825L354.201 67.5031C353.3 64.5329 352.55 61.519 351.953 58.473H351.835C351.378 61.5206 350.512 64.5741 349.593 67.5031L345.738 79.646H339.979L331.747 51.6842H338.135L341.302 64.9773C342.049 68.1434 342.678 71.1317 343.2 73.954H343.318C343.775 71.6001 344.522 68.6593 345.619 65.0366L349.593 51.6901H354.658L358.459 64.752C359.379 67.9181 360.126 71.025 360.707 73.9599H360.873C361.276 71.0843 361.911 68.0308 362.771 64.752L366.169 51.6901L372.272 51.6842ZM404.476 79.646H398.26V63.5899C398.26 58.645 396.363 56.1666 392.62 56.1666C388.937 56.1666 386.405 59.3328 386.405 63.0147V79.646H380.19V59.6766C380.19 57.2042 380.13 54.5539 379.958 51.6782H385.426L385.717 55.9947H385.889C387.561 53.0064 390.954 51.109 394.755 51.109C400.627 51.109 404.482 55.5974 404.482 62.9021L404.476 79.646ZM421.615 79.646H415.394V38.8535H421.615V79.646ZM444.277 80.2804C436.11 80.2804 430.808 74.1793 430.808 65.8963C430.808 57.2635 436.217 51.109 444.733 51.109C452.793 51.109 458.202 56.9196 458.202 65.4398C458.208 74.1793 452.621 80.2804 444.277 80.2804ZM444.508 55.6508C440.018 55.6508 437.142 59.8486 437.142 65.7184C437.142 71.4756 440.084 75.6735 444.443 75.6735C448.82 75.6735 451.749 71.1851 451.749 65.5999C451.755 59.9079 448.885 55.6508 444.508 55.6508ZM482.708 79.646L482.257 76.4265H482.091C480.193 79.0175 477.423 80.2804 473.912 80.2804C468.901 80.2804 465.343 76.7703 465.343 72.0508C465.343 65.1492 471.327 61.5799 481.688 61.5799V61.0641C481.688 57.3821 479.736 55.5381 475.881 55.5381C473.124 55.5381 470.704 56.2318 468.575 57.6133L467.312 53.5281C469.897 51.9154 473.124 51.109 476.913 51.109C484.22 51.109 487.909 54.963 487.909 62.6768V72.9757C487.909 75.798 488.033 77.9858 488.312 79.6519L482.708 79.646ZM481.854 65.7184C474.95 65.7184 471.487 67.3904 471.487 71.357C471.487 74.292 473.272 75.7268 475.751 75.7268C478.912 75.7268 481.854 73.3137 481.854 70.0348V65.7184ZM518.09 79.646L517.8 75.1576H517.628C515.843 78.5491 512.842 80.2804 508.649 80.2804C501.905 80.2804 496.912 74.3513 496.912 66.009C496.912 57.2635 502.089 51.1031 509.159 51.1031C512.901 51.1031 515.552 52.366 517.047 54.9037H517.171V38.8535H523.392V72.11C523.392 74.8137 523.458 77.3455 523.624 79.646H518.09ZM517.171 63.1926C517.171 59.2794 514.579 55.9413 510.624 55.9413C506.015 55.9413 503.198 60.0265 503.198 65.7777C503.198 71.4163 506.122 75.2762 510.499 75.2762C514.407 75.2762 517.171 71.8788 517.171 67.8529V63.1926ZM562.837 80.2804C554.671 80.2804 549.375 74.1793 549.375 65.8963C549.375 57.2635 554.784 51.109 563.3 51.109C571.36 51.109 576.769 56.9196 576.769 65.4398C576.775 74.1793 571.194 80.2804 562.837 80.2804ZM563.069 55.6508C558.585 55.6508 555.709 59.8486 555.709 65.7184C555.709 71.4756 558.644 75.6735 563.009 75.6735C567.386 75.6735 570.316 71.1851 570.316 65.5999C570.328 59.9079 567.452 55.6508 563.069 55.6508ZM610.194 79.646H603.973V63.5899C603.973 58.645 602.075 56.1666 598.333 56.1666C594.65 56.1666 592.123 59.3328 592.123 63.0147V79.646H585.902V59.6766C585.902 57.2042 585.843 54.5539 585.671 51.6782H591.139L591.429 55.9947H591.601C593.268 53.0064 596.666 51.1031 600.462 51.1031C606.333 51.1031 610.194 55.5915 610.194 62.8962V79.646ZM652.012 56.3445H645.174V69.9222C645.174 73.3789 646.371 75.1043 648.791 75.1043C649.888 75.1043 650.808 74.9857 651.549 74.8137L651.721 79.5333C650.517 79.9958 648.904 80.227 646.899 80.227C642.001 80.227 639.071 77.5233 639.071 70.444V56.3445H634.99V51.6842H639.071V46.5614L645.174 44.7174V51.6782H652.012V56.3445ZM684.915 79.646H678.706V63.7085C678.706 58.7043 676.814 56.1725 673.066 56.1725C669.845 56.1725 666.844 58.3604 666.844 62.7894V79.646H660.635V38.8535H666.844V55.6508H666.969C668.926 52.6032 671.761 51.1031 675.379 51.1031C681.297 51.1031 684.915 55.7041 684.915 63.0147V79.646ZM718.625 67.1592H699.973C700.092 72.4539 703.597 75.4422 708.786 75.4422C711.544 75.4422 714.082 74.9797 716.324 74.12L717.291 78.4364C714.646 79.5867 711.532 80.1618 707.909 80.1618C699.161 80.1618 693.983 74.6359 693.983 66.0683C693.983 57.4947 699.285 51.0497 707.209 51.0497C714.355 51.0497 718.839 56.3445 718.839 64.3429C718.879 65.2868 718.807 66.2321 718.625 67.1592ZM712.926 62.7301C712.926 58.4137 710.749 55.3662 706.776 55.3662C703.205 55.3662 700.382 58.473 699.979 62.7301H712.926Z" fill="white"/>
<defs>
<linearGradient id="paint0_linear_533_30" x1="586.897" y1="237.73" x2="586.897" y2="-617.368" gradientUnits="userSpaceOnUse">
<stop stop-color="#1A1A1A" stop-opacity="0.1"/>
<stop offset="0.123" stop-color="#212121" stop-opacity="0.151"/>
<stop offset="0.308" stop-color="#353535" stop-opacity="0.227"/>
<stop offset="0.532" stop-color="#575757" stop-opacity="0.318"/>
<stop offset="0.783" stop-color="#858585" stop-opacity="0.421"/>
<stop offset="1" stop-color="#B3B3B3" stop-opacity="0.51"/>
</linearGradient>
</defs>
</svg>
