<svg width="667" height="667" viewBox="0 0 667 667" fill="none" xmlns="http://www.w3.org/2000/svg">
<path d="M566.667 66.6667H500V33.3333C500 24.4928 496.488 16.0143 490.237 9.76311C483.986 3.51189 475.507 0 466.667 0C457.826 0 449.348 3.51189 443.096 9.76311C436.845 16.0143 433.333 24.4928 433.333 33.3333V66.6667H233.333V33.3333C233.333 24.4928 229.821 16.0143 223.57 9.76311C217.319 3.51189 208.841 0 200 0C191.159 0 182.681 3.51189 176.43 9.76311C170.179 16.0143 166.667 24.4928 166.667 33.3333V66.6667H100C73.4784 66.6667 48.043 77.2023 29.2893 95.956C10.5357 114.71 0 140.145 0 166.667V566.667C0 593.188 10.5357 618.624 29.2893 637.377C48.043 656.131 73.4784 666.667 100 666.667H566.667C593.188 666.667 618.624 656.131 637.377 637.377C656.131 618.624 666.667 593.188 666.667 566.667V166.667C666.667 140.145 656.131 114.71 637.377 95.956C618.624 77.2023 593.188 66.6667 566.667 66.6667ZM600 566.667C600 575.507 596.488 583.986 590.237 590.237C583.986 596.488 575.507 600 566.667 600H100C91.1595 600 82.681 596.488 76.4298 590.237C70.1786 583.986 66.6667 575.507 66.6667 566.667V333.333H600V566.667Z" fill="white"/>
<path d="M485.332 492.334H576.332V547.334C576.332 563.903 562.901 577.334 546.332 577.334H485.332V492.334Z" fill="white"/>
</svg>
