<svg width="13" height="16" viewBox="0 0 13 16" fill="none" xmlns="http://www.w3.org/2000/svg">
<mask id="mask0_354_1072" style="mask-type:luminance" maskUnits="userSpaceOnUse" x="0" y="0" width="13" height="16">
<path d="M0.25 0.771484H12.25V15.7715H0.25V0.771484Z" fill="white"/>
</mask>
<g mask="url(#mask0_354_1072)">
<path fill-rule="evenodd" clip-rule="evenodd" d="M6.11458 0.771484C9.35937 0.771484 11.9844 3.39649 11.9844 6.63607C11.9844 9.87565 9.35937 12.5007 6.11458 12.5007C2.875 12.5007 0.25 9.87565 0.25 6.63607C0.25 3.39649 2.875 0.771484 6.11458 0.771484ZM10.5208 11.235C9.70833 12.0163 8.68229 12.584 7.54688 12.8444L8.54688 15.1725L9.63021 13.4277L11.6406 13.8392L10.5208 11.235ZM4.99479 12.9069C3.84375 12.6986 2.80208 12.1882 1.95312 11.4538L0.59375 14.3809L2.61458 14.0267L3.64583 15.8027L4.99479 12.9069ZM6.21875 4.56836C6.18229 4.47982 6.05208 4.47982 6.01562 4.56836L5.51042 5.91211C5.49479 5.95378 5.45833 5.97982 5.41146 5.97982L3.97917 6.05273C3.88021 6.05794 3.84375 6.17773 3.91667 6.24023L5.03646 7.14128C5.07292 7.16732 5.08333 7.20898 5.07292 7.25065L4.69792 8.63607C4.67188 8.72982 4.77604 8.80794 4.85938 8.75065L6.05729 7.96419C6.09375 7.94336 6.14062 7.94336 6.17708 7.96419L7.375 8.75065C7.45833 8.80794 7.5625 8.72982 7.53646 8.63607L7.16146 7.25065C7.15104 7.20898 7.16146 7.16732 7.19792 7.14128L8.31771 6.24023C8.39063 6.17773 8.35417 6.05794 8.25521 6.05273L6.81771 5.97982C6.77604 5.97982 6.73958 5.95378 6.72396 5.91211L6.21875 4.56836ZM6.67188 2.49023C6.33854 2.24023 5.89583 2.24023 5.5625 2.49023C4.69271 3.14128 4.89062 3.06836 3.80729 3.12565C3.39062 3.15169 3.05208 3.43294 2.95833 3.83919C2.70833 4.89648 2.8125 4.71419 2.02604 5.45898C1.71875 5.74544 1.64063 6.17773 1.83333 6.55273C2.32292 7.52149 2.28646 7.31315 2.15625 8.39128C2.10417 8.80273 2.32813 9.18815 2.70833 9.34961C3.70833 9.77669 3.54688 9.64128 4.14062 10.5527C4.36979 10.9017 4.78646 11.0527 5.18229 10.9329C6.22396 10.6152 6.01042 10.6152 7.05208 10.9329C7.44792 11.0527 7.86458 10.9017 8.09375 10.5527C8.6875 9.64128 8.52604 9.77669 9.52604 9.34961C9.90625 9.18815 10.1302 8.80273 10.0781 8.39128C9.94792 7.31315 9.91146 7.52149 10.401 6.55273C10.5885 6.17773 10.5156 5.74544 10.2083 5.45898C9.41667 4.71419 9.52604 4.89648 9.27604 3.83919C9.18229 3.43294 8.84375 3.15169 8.42708 3.12565C7.34375 3.06836 7.54167 3.14128 6.67188 2.49023Z" fill="#E2A9F1"/>
</g>
</svg>
