<svg width="18" height="18" viewBox="0 0 18 18" fill="none" xmlns="http://www.w3.org/2000/svg">
<path d="M8.94401 0.71875C4.35026 0.71875 0.621094 4.44271 0.621094 9.04167C0.621094 13.6354 4.35026 17.3594 8.94401 17.3594C13.5378 17.3594 17.2669 13.6354 17.2669 9.04167C17.2669 4.44271 13.5378 0.71875 8.94401 0.71875ZM12.9857 12.4635L12.7357 12.8073C12.4336 13.1875 12.1315 13.4115 11.5794 13.5156C9.85547 13.849 7.90755 12.401 6.71484 10.9948L6.70443 10.9896L6.69922 10.9844C5.5013 9.57812 4.38672 7.41667 4.99089 5.77083C5.18359 5.23958 5.45443 4.97917 5.8763 4.73958L6.26172 4.55208C6.47005 4.44271 6.73568 4.52604 6.83984 4.73438L7.89714 6.66667C8.01172 6.88021 7.9388 7.14062 7.72526 7.26562L7.28255 7.52083C7.16797 7.58854 7.06901 7.66667 6.99089 7.77083C6.63151 8.21875 6.83985 8.84375 7.83464 10.0156L7.85026 10.0312C8.84505 11.1927 9.43359 11.5052 9.93359 11.2188C10.0482 11.1562 10.1419 11.0677 10.2201 10.9688L10.5482 10.5677C10.694 10.3802 10.9753 10.3542 11.1628 10.5L12.8971 11.8542C13.0898 12.0052 13.1315 12.2656 12.9857 12.4635Z" fill="#E2A9F1"/>
</svg>
