<svg width="308" height="20" viewBox="0 0 308 20" fill="none" xmlns="http://www.w3.org/2000/svg">
<path fill-rule="evenodd" clip-rule="evenodd" d="M261.441 13.8822C260.642 13.8822 260 13.2398 260 12.4411C260 11.6424 260.642 11 261.441 11H306.393C307.191 11 307.834 11.6424 307.834 12.4411C307.834 13.2398 307.191 13.8822 306.393 13.8822H283.917H261.441Z" fill="url(#paint0_linear_858_7)"/>
<path fill-rule="evenodd" clip-rule="evenodd" d="M1.44109 13.8783C0.642415 13.8783 0 13.2359 0 12.4372C0 11.6385 0.642415 10.9961 1.44109 10.9961H219.236C220.035 10.9961 220.677 11.6385 220.677 12.4372C220.677 13.2359 220.035 13.8783 219.236 13.8783H1.44109Z" fill="url(#paint1_linear_858_7)"/>
<path d="M248.341 19.2207C252.014 19.2207 255 16.2517 255 12.7011C255 9.15045 252.014 6.18146 248.341 6.18146H248.116C248.689 4.57543 249.722 2.97808 251.901 1.37205L250.868 0.000407809C243.983 3.6639 241.804 8.69902 241.804 12.7011C241.804 16.2517 244.791 19.2207 248.341 19.2207ZM232.741 19.2207C236.413 19.2207 239.391 16.2517 239.391 12.7011C239.391 9.15045 236.413 6.18146 232.741 6.18146H232.507C233.08 4.57543 234.113 2.97808 236.301 1.37205L235.268 0.000407809C228.383 3.6639 226.196 8.69902 226.196 12.7011C226.196 16.2517 229.182 19.2207 232.741 19.2207Z" fill="#95FF00"/>
<defs>
<linearGradient id="paint0_linear_858_7" x1="260" y1="12.4411" x2="322.98" y2="12.0156" gradientUnits="userSpaceOnUse">
<stop stop-color="#95FF00"/>
<stop offset="0.706364" stop-color="white"/>
</linearGradient>
<linearGradient id="paint1_linear_858_7" x1="-37.5195" y1="12.0117" x2="220.677" y2="12.4372" gradientUnits="userSpaceOnUse">
<stop offset="0.347747" stop-color="white"/>
<stop offset="1" stop-color="#95FF00"/>
</linearGradient>
</defs>
</svg>
