<svg width="309" height="20" viewBox="0 0 309 20" fill="none" xmlns="http://www.w3.org/2000/svg">
<path fill-rule="evenodd" clip-rule="evenodd" d="M1.44109 10.7162C0.642413 10.7162 0 10.0737 0 9.27507C0 8.4764 0.642413 7.83398 1.44109 7.83398H46.3926C47.1913 7.83398 47.8337 8.4764 47.8337 9.27507C47.8337 10.0737 47.1913 10.7162 46.3926 10.7162H23.9169H1.44109Z" fill="url(#paint0_linear_858_2)"/>
<path fill-rule="evenodd" clip-rule="evenodd" d="M88.9216 10.7162C88.1229 10.7162 87.4805 10.0737 87.4805 9.27507C87.4805 8.4764 88.1229 7.83398 88.9216 7.83398H306.717C307.516 7.83398 308.158 8.4764 308.158 9.27507C308.158 10.0737 307.516 10.7162 306.717 10.7162H88.9216Z" fill="url(#paint1_linear_858_2)"/>
<path d="M60.139 0C56.4668 0 53.4805 2.96899 53.4805 6.51962C53.4805 10.0703 56.4668 13.0392 60.139 13.0392H60.3647C59.7917 14.6453 58.7587 16.2426 56.5797 17.8487L57.6127 19.2203C64.497 15.5568 66.676 10.5217 66.676 6.51962C66.676 2.96899 63.6896 0 60.139 0ZM75.7392 0C72.067 0 69.0894 2.96899 69.0894 6.51962C69.0894 10.0703 72.067 13.0392 75.7392 13.0392H75.9736C75.4006 14.6453 74.3676 16.2426 72.1799 17.8487L73.213 19.2203C80.0972 15.5568 82.2849 10.5217 82.2849 6.51962C82.2849 2.96899 79.2985 0 75.7392 0Z" fill="#95FF00"/>
<defs>
<linearGradient id="paint0_linear_858_2" x1="-1.91002e-10" y1="9.27507" x2="62.9805" y2="8.84961" gradientUnits="userSpaceOnUse">
<stop offset="0.293636" stop-color="white"/>
<stop offset="1" stop-color="#95FF00"/>
</linearGradient>
<linearGradient id="paint1_linear_858_2" x1="49.9609" y1="8.84961" x2="308.158" y2="9.27507" gradientUnits="userSpaceOnUse">
<stop stop-color="#95FF00"/>
<stop offset="0.652253" stop-color="white"/>
</linearGradient>
</defs>
</svg>
