<svg width="14" height="15" viewBox="0 0 14 15" fill="none" xmlns="http://www.w3.org/2000/svg">
<mask id="mask0_354_522" style="mask-type:luminance" maskUnits="userSpaceOnUse" x="0" y="0" width="14" height="15">
<path d="M0.25 0.871094H13.9792V14.8711H0.25V0.871094Z" fill="white"/>
</mask>
<g mask="url(#mask0_354_522)">
<path d="M12.0865 10.2402L13.3104 9.82356C13.5865 9.72981 13.7688 9.54752 13.8521 9.26106C14.1594 8.21418 13.274 7.50064 12.4823 7.77147L11.4511 8.12564C11.3625 8.15168 11.274 8.14647 11.1906 8.10481C11.1073 8.06314 11.05 7.99543 11.0188 7.90168L10.3313 5.82356C10.3 5.73502 10.3052 5.64647 10.3469 5.55793C10.3886 5.4746 10.4563 5.41731 10.5448 5.38606L11.5813 5.03189C12.3677 4.76627 12.6542 3.6621 11.8052 3.01106C11.5604 2.83398 11.2948 2.79231 11.0136 2.89647L9.80522 3.30793C9.62293 3.37043 9.50314 3.30793 9.44064 3.12564L9.06043 1.96939C8.80001 1.16731 7.71668 0.875641 7.07605 1.74022C6.89897 1.99022 6.86251 2.25585 6.96147 2.54752L7.36772 3.76627C7.39376 3.85481 7.38855 3.94335 7.34689 4.03189C7.30522 4.11522 7.23751 4.17252 7.14897 4.20377L4.99272 4.93814C4.90418 4.96418 4.81564 4.95897 4.7323 4.91731C4.64897 4.87564 4.59168 4.80793 4.56043 4.71418L4.20105 3.61522C3.93543 2.81314 2.85209 2.52148 2.21147 3.38606C2.03959 3.63606 1.99793 3.90168 2.10209 4.19335L2.52397 5.4746C2.59168 5.6621 2.52918 5.7871 2.34689 5.8496L1.12814 6.26106C0.857303 6.37043 0.669803 6.55793 0.570844 6.83918C0.331262 7.71418 0.909386 8.35481 1.57084 8.37043C1.70105 8.37564 1.82084 8.35481 1.94064 8.31314L2.97709 7.95897C3.06564 7.92772 3.14897 7.93814 3.23751 7.97981C3.32084 8.02147 3.37814 8.08918 3.40418 8.17772L4.09689 10.2611C4.12814 10.3548 4.12293 10.4433 4.08126 10.5267C4.03959 10.6152 3.97189 10.6725 3.88334 10.7038L2.71668 11.0996C2.44584 11.2038 2.25834 11.3965 2.15939 11.6725C1.9198 12.5527 2.50314 13.1881 3.16459 13.209C3.2948 13.209 3.41459 13.1933 3.53959 13.1517L4.62293 12.7819C4.80522 12.7194 4.92501 12.7767 4.98751 12.9642L5.36251 14.1152C5.43543 14.3392 5.56564 14.5163 5.74793 14.6569C5.93543 14.7923 6.13855 14.8652 6.36772 14.8704C6.78439 14.8756 7.1073 14.7038 7.34689 14.36C7.52918 14.11 7.57084 13.8392 7.46668 13.5475L7.06564 12.3236C7.03439 12.235 7.03959 12.1465 7.08126 12.0631C7.12293 11.9746 7.19064 11.9173 7.27918 11.8861L9.43543 11.1569C9.52397 11.1256 9.61251 11.1308 9.69584 11.1725C9.77918 11.2194 9.83647 11.2819 9.86772 11.3756L10.2323 12.4746C10.3 12.6933 10.4302 12.8756 10.6125 13.0111C10.8 13.1517 11.0031 13.2246 11.2323 13.2298C11.6542 13.2246 11.9823 13.0423 12.2167 12.6777C12.3886 12.4329 12.425 12.1673 12.3261 11.8861L11.9042 10.6048C11.8469 10.4225 11.9042 10.2975 12.0865 10.2402ZM8.65418 9.08397L6.69064 9.75064C6.57084 9.79231 6.46147 9.78189 6.34689 9.72981C6.23751 9.67252 6.16459 9.58397 6.12293 9.46418L5.50834 7.57877C5.46668 7.46418 5.47189 7.3496 5.52397 7.23502C5.58126 7.12564 5.6646 7.04752 5.77918 7.00585L7.73751 6.33397C7.8573 6.29752 7.97189 6.30272 8.08126 6.36002C8.19064 6.41731 8.26355 6.50064 8.30522 6.62043L8.92501 8.50064C8.96668 8.62043 8.96147 8.73502 8.90418 8.8496C8.85209 8.96418 8.76876 9.04231 8.65418 9.08397Z" fill="#0072FF"/>
</g>
</svg>
