<svg width="800" height="238" viewBox="0 0 800 238" fill="none" xmlns="http://www.w3.org/2000/svg">
<path d="M770.37 237.037H29.6296C13.037 237.037 0 224 0 207.407V29.6296C0 13.037 13.037 0 29.6296 0H770.37C786.963 0 800 13.037 800 29.6296V207.407C800 224 786.963 237.037 770.37 237.037Z" fill="black"/>
<path d="M770.37 4.74074C784 4.74074 795.259 16 795.259 29.6296V207.407C795.259 221.037 784 232.296 770.37 232.296H29.6296C16 232.296 4.74074 221.037 4.74074 207.407V29.6296C4.74074 16 16 4.74074 29.6296 4.74074H770.37ZM770.37 0H29.6296C13.037 0 0 13.6296 0 29.6296V207.407C0 224 13.037 237.037 29.6296 237.037H770.37C786.963 237.037 800 224 800 207.407V29.6296C800 13.6296 786.963 0 770.37 0Z" fill="#A6A6A6"/>
<path d="M280.888 60.4442C280.888 65.185 279.702 69.3331 276.739 72.2961C273.184 75.8516 269.036 77.6294 263.702 77.6294C258.369 77.6294 254.221 75.8516 250.665 72.2961C247.11 68.7405 245.332 64.5924 245.332 59.259C245.332 53.9257 247.11 49.7776 250.665 46.222C254.221 42.6665 258.369 40.8887 263.702 40.8887C266.073 40.8887 268.443 41.4813 270.814 42.6664C273.184 43.8516 274.962 45.0368 276.147 46.8146L273.184 49.7776C270.813 46.8146 267.851 45.6294 263.702 45.6294C260.147 45.6294 256.591 46.8146 254.221 49.7776C251.258 52.1479 250.073 55.7035 250.073 59.8516C250.073 63.9998 251.258 67.5553 254.221 69.9257C257.184 72.2961 260.147 74.0739 263.702 74.0739C267.851 74.0739 270.814 72.8887 273.776 69.9257C275.554 68.1479 276.739 65.7776 276.739 62.8146H263.702V58.0739H280.888V60.4442ZM308.147 45.6294H292.147V56.8887H306.962V61.0368H292.147V72.2961H308.147V77.0368H287.406V41.4813H308.147V45.6294ZM327.702 77.0368H322.962V45.6294H312.888V41.4813H337.776V45.6294H327.702V77.0368ZM354.962 77.0368V41.4813H359.702V77.0368H354.962ZM379.851 77.0368H375.11V45.6294H365.036V41.4813H389.332V45.6294H379.258V77.0368H379.851ZM436.147 72.2961C432.591 75.8516 428.443 77.6294 423.11 77.6294C417.776 77.6294 413.628 75.8516 410.073 72.2961C406.517 68.7405 404.739 64.5924 404.739 59.259C404.739 53.9257 406.517 49.7776 410.073 46.222C413.628 42.6665 417.776 40.8887 423.11 40.8887C428.443 40.8887 432.591 42.6665 436.147 46.222C439.702 49.7776 441.48 53.9257 441.48 59.259C441.48 64.5924 439.702 68.7405 436.147 72.2961ZM413.628 69.3331C415.999 71.7035 419.554 73.4813 423.11 73.4813C426.665 73.4813 430.221 72.2961 432.591 69.3331C434.962 66.9627 436.739 63.4072 436.739 59.259C436.739 55.1109 435.554 51.5553 432.591 49.185C430.221 46.8146 426.665 45.0368 423.11 45.0368C419.554 45.0368 415.999 46.222 413.628 49.185C411.258 51.5553 409.48 55.1109 409.48 59.259C409.48 63.4072 410.665 66.9627 413.628 69.3331ZM447.999 77.0368V41.4813H453.332L470.517 69.3331V41.4813H475.258V77.0368H470.517L452.147 47.9998V77.0368H447.999Z" fill="white" stroke="white" stroke-width="1.18519" stroke-miterlimit="10"/>
<path d="M403.555 129.184C389.332 129.184 378.073 139.851 378.073 154.665C378.073 168.888 389.332 180.147 403.555 180.147C417.777 180.147 429.036 169.48 429.036 154.665C429.036 139.258 417.777 129.184 403.555 129.184ZM403.555 169.48C395.851 169.48 389.332 162.962 389.332 154.073C389.332 145.184 395.851 138.665 403.555 138.665C411.258 138.665 417.777 144.591 417.777 154.073C417.777 162.962 411.258 169.48 403.555 169.48ZM348.444 129.184C334.221 129.184 322.962 139.851 322.962 154.665C322.962 168.888 334.221 180.147 348.444 180.147C362.666 180.147 373.925 169.48 373.925 154.665C373.925 139.258 362.666 129.184 348.444 129.184ZM348.444 169.48C340.74 169.48 334.221 162.962 334.221 154.073C334.221 145.184 340.74 138.665 348.444 138.665C356.147 138.665 362.666 144.591 362.666 154.073C362.666 162.962 356.147 169.48 348.444 169.48ZM282.666 136.888V147.554H308.147C307.555 153.48 305.184 158.221 302.221 161.184C298.666 164.739 292.74 168.888 282.666 168.888C266.666 168.888 254.814 156.443 254.814 140.443C254.814 124.443 267.258 111.999 282.666 111.999C290.962 111.999 297.481 115.554 302.221 119.702L309.925 111.999C303.407 106.073 295.11 101.332 283.258 101.332C261.925 101.332 243.555 119.11 243.555 140.443C243.555 161.776 261.925 179.554 283.258 179.554C295.11 179.554 303.407 175.999 310.518 168.295C317.629 161.184 319.999 151.11 319.999 143.406C319.999 141.036 319.999 138.665 319.407 136.888H282.666ZM551.703 145.184C549.332 139.258 543.407 129.184 530.37 129.184C517.332 129.184 506.666 139.258 506.666 154.665C506.666 168.888 517.332 180.147 531.555 180.147C542.814 180.147 549.925 173.036 552.295 168.888L543.999 162.962C541.036 167.11 537.481 170.073 531.555 170.073C525.629 170.073 522.073 167.702 519.11 162.369L552.888 148.147L551.703 145.184ZM517.332 153.48C517.332 143.999 525.036 138.665 530.37 138.665C534.518 138.665 538.666 141.036 539.851 143.999L517.332 153.48ZM489.481 177.776H500.74V103.702H489.481V177.776ZM471.703 134.517C468.74 131.554 463.999 128.591 458.073 128.591C445.629 128.591 433.777 139.851 433.777 154.073C433.777 168.295 445.036 178.962 458.073 178.962C463.999 178.962 468.74 175.999 471.11 173.036H471.703V176.591C471.703 186.073 466.37 191.406 458.073 191.406C451.555 191.406 446.814 186.665 445.629 182.517L436.147 186.665C439.11 193.184 446.221 201.48 458.666 201.48C471.703 201.48 482.37 193.776 482.37 175.406V130.369H471.703V134.517ZM458.666 169.48C450.962 169.48 444.444 162.962 444.444 154.073C444.444 145.184 450.962 138.665 458.666 138.665C466.37 138.665 472.295 145.184 472.295 154.073C472.295 162.962 466.37 169.48 458.666 169.48ZM603.258 103.702H576.592V177.776H587.851V149.925H603.258C615.703 149.925 627.555 141.036 627.555 126.814C627.555 112.591 615.703 103.702 603.258 103.702ZM603.851 139.258H587.851V113.776H603.851C612.147 113.776 616.888 120.888 616.888 126.221C616.295 132.739 611.555 139.258 603.851 139.258ZM671.999 128.591C663.703 128.591 655.407 132.147 652.444 139.851L662.518 143.999C664.888 139.851 668.444 138.665 672.592 138.665C678.518 138.665 683.851 142.221 684.444 148.147V148.739C682.666 147.554 677.925 145.776 673.184 145.776C662.518 145.776 651.851 151.702 651.851 162.369C651.851 172.443 660.74 178.962 670.221 178.962C677.925 178.962 681.481 175.406 684.444 171.851H685.036V177.776H695.703V149.332C694.518 136.295 684.444 128.591 671.999 128.591ZM670.814 169.48C667.258 169.48 661.925 167.702 661.925 162.962C661.925 157.036 668.444 155.258 673.777 155.258C678.518 155.258 680.888 156.443 683.851 157.628C682.666 164.739 676.74 169.48 670.814 169.48ZM733.036 130.369L720.592 162.369H719.999L706.962 130.369H695.11L714.666 175.406L703.407 200.295H714.666L744.888 130.369H733.036ZM633.481 177.776H644.74V103.702H633.481V177.776Z" fill="white"/>
<path d="M61.6282 44.4434C59.8504 46.2211 59.2578 49.1841 59.2578 52.7397V183.703C59.2578 187.258 60.443 190.221 62.2208 191.999L62.8134 192.592L136.295 119.11V117.925L61.6282 44.4434Z" fill="url(#paint0_linear_533_28)"/>
<path d="M159.999 143.999L135.703 119.703V117.925L159.999 93.6289L160.592 94.2215L189.629 110.814C197.925 115.555 197.925 123.259 189.629 127.999L159.999 143.999Z" fill="url(#paint1_linear_533_28)"/>
<path d="M160.592 143.406L135.703 118.518L61.6289 192.592C64.5919 195.555 68.74 195.555 74.0734 193.184L160.592 143.406Z" fill="url(#paint2_linear_533_28)"/>
<path d="M160.592 93.6293L74.0734 44.4441C68.74 41.4811 64.5919 42.0737 61.6289 45.0367L135.703 118.518L160.592 93.6293Z" fill="url(#paint3_linear_533_28)"/>
<path opacity="0.2" d="M159.999 142.814L74.0734 191.407C69.3326 194.37 65.1845 193.777 62.2215 191.407L61.6289 192L62.2215 192.592C65.1845 194.963 69.3326 195.555 74.0734 192.592L159.999 142.814Z" fill="black"/>
<path opacity="0.25" d="M74.0726 45.0368L189.628 110.815C193.184 113.185 195.554 115.555 195.554 118.518C195.554 115.555 193.776 112.592 189.628 110.222L74.0726 44.4442C65.7763 39.7035 59.2578 43.2591 59.2578 52.7405V53.3331C59.2578 44.4442 65.7763 40.2961 74.0726 45.0368Z" fill="white"/>
<defs>
<linearGradient id="paint0_linear_533_28" x1="129.184" y1="51.6137" x2="29.7289" y2="151.063" gradientUnits="userSpaceOnUse">
<stop stop-color="#00A0FF"/>
<stop offset="0.007" stop-color="#00A1FF"/>
<stop offset="0.26" stop-color="#00BEFF"/>
<stop offset="0.512" stop-color="#00D2FF"/>
<stop offset="0.76" stop-color="#00DFFF"/>
<stop offset="1" stop-color="#00E3FF"/>
</linearGradient>
<linearGradient id="paint1_linear_533_28" x1="200.497" y1="118.524" x2="57.1076" y2="118.524" gradientUnits="userSpaceOnUse">
<stop stop-color="#FFE000"/>
<stop offset="0.409" stop-color="#FFBD00"/>
<stop offset="0.775" stop-color="#FFA500"/>
<stop offset="1" stop-color="#FF9C00"/>
</linearGradient>
<linearGradient id="paint2_linear_533_28" x1="147.122" y1="132.124" x2="12.26" y2="266.986" gradientUnits="userSpaceOnUse">
<stop stop-color="#FF3A44"/>
<stop offset="1" stop-color="#C31162"/>
</linearGradient>
<linearGradient id="paint3_linear_533_28" x1="43.2408" y1="1.04262" x2="103.466" y2="61.2678" gradientUnits="userSpaceOnUse">
<stop stop-color="#32A071"/>
<stop offset="0.069" stop-color="#2DA771"/>
<stop offset="0.476" stop-color="#15CF74"/>
<stop offset="0.801" stop-color="#06E775"/>
<stop offset="1" stop-color="#00F076"/>
</linearGradient>
</defs>
</svg>
