<svg width="1175" height="236" viewBox="0 0 1175 236" fill="none" xmlns="http://www.w3.org/2000/svg">
<mask id="mask0_278_63" style="mask-type:luminance" maskUnits="userSpaceOnUse" x="1040" y="50" width="135" height="135">
<path d="M1040.58 50.8385H1174.58V184.839H1040.58V50.8385Z" fill="white"/>
</mask>
<g mask="url(#mask0_278_63)">
<path d="M1174.89 124.708V165C1174.89 176.109 1165.85 185.151 1154.74 185.151H1060.72C1049.61 185.151 1040.58 176.109 1040.58 165V70.9843C1040.58 59.875 1049.61 50.8385 1060.72 50.8385H1101.02C1104.73 50.8385 1107.73 53.8385 1107.73 57.552C1107.73 61.2656 1104.73 64.2656 1101.02 64.2656H1060.72C1057.02 64.2656 1054.01 67.276 1054.01 70.9843V165C1054.01 168.708 1057.02 171.719 1060.72 171.719H1154.74C1158.45 171.719 1161.46 168.708 1161.46 165V124.708C1161.46 120.995 1164.46 117.995 1168.17 117.995C1171.89 117.995 1174.89 120.995 1174.89 124.708ZM1168.17 50.8385H1127.88C1124.17 50.8385 1121.17 53.8385 1121.17 57.552C1121.17 61.2656 1124.17 64.2656 1127.88 64.2656H1151.96L1102.98 113.245C1100.36 115.87 1100.36 120.12 1102.98 122.74C1104.3 124.052 1106.02 124.708 1107.73 124.708C1109.45 124.708 1111.17 124.052 1112.48 122.74L1161.46 73.7656V97.8437C1161.46 101.557 1164.46 104.562 1168.17 104.562C1171.89 104.562 1174.89 101.557 1174.89 97.8437V57.552C1174.89 53.8385 1171.89 50.8385 1168.17 50.8385Z" fill="#8C52FF"/>
</g>
<mask id="mask1_278_63" style="mask-type:luminance" maskUnits="userSpaceOnUse" x="0" y="0" width="1011" height="236">
<path d="M1010.67 0H0V236H1010.67V0Z" fill="white"/>
</mask>
<g mask="url(#mask1_278_63)">
<path d="M124.499 56.755L82.8952 174.047H47.1452L5.54102 56.755H35.9577L65.0202 145.318L94.2702 56.755H124.499Z" fill="black"/>
<path d="M150.737 71.13C145.721 71.13 141.622 69.6612 138.445 66.7133C135.279 63.755 133.695 60.1039 133.695 55.755C133.695 51.2967 135.279 47.5987 138.445 44.6508C141.622 41.6925 145.721 40.2133 150.737 40.2133C155.638 40.2133 159.674 41.6925 162.841 44.6508C166.018 47.5987 167.612 51.2967 167.612 55.755C167.612 60.1039 166.018 63.755 162.841 66.7133C159.674 69.6612 155.638 71.13 150.737 71.13ZM164.945 80.8175V174.047H136.362V80.8175H164.945Z" fill="black"/>
<path d="M223.588 175.38C215.447 175.38 208.202 173.995 201.859 171.213C195.51 168.422 190.494 164.604 186.817 159.755C183.15 154.911 181.093 149.479 180.65 143.463H208.88C209.213 146.703 210.713 149.328 213.38 151.338C216.057 153.338 219.348 154.338 223.255 154.338C226.807 154.338 229.557 153.646 231.505 152.255C233.463 150.854 234.442 149.041 234.442 146.817C234.442 144.14 233.046 142.161 230.255 140.88C227.473 139.604 222.968 138.187 216.734 136.63C210.051 135.062 204.484 133.416 200.025 131.692C195.567 129.974 191.718 127.245 188.484 123.505C185.26 119.771 183.65 114.729 183.65 108.38C183.65 103.036 185.119 98.1664 188.067 93.7758C191.025 89.3748 195.369 85.8956 201.109 83.3383C206.843 80.7706 213.671 79.4841 221.588 79.4841C233.281 79.4841 242.494 82.38 249.234 88.1716C255.968 93.9633 259.838 101.646 260.838 111.213H234.442C233.994 107.995 232.572 105.437 230.171 103.547C227.781 101.646 224.635 100.692 220.734 100.692C217.4 100.692 214.838 101.338 213.046 102.63C211.265 103.911 210.38 105.661 210.38 107.88C210.38 110.562 211.796 112.567 214.63 113.901C217.473 115.234 221.906 116.567 227.921 117.901C234.838 119.692 240.463 121.453 244.796 123.172C249.14 124.896 252.952 127.682 256.234 131.526C259.525 135.375 261.223 140.526 261.338 146.984C261.338 152.442 259.801 157.317 256.734 161.609C253.676 165.89 249.281 169.255 243.546 171.713C237.807 174.156 231.156 175.38 223.588 175.38Z" fill="black"/>
<path d="M293.255 71.13C288.239 71.13 284.14 69.6612 280.963 66.7133C277.796 63.755 276.213 60.1039 276.213 55.755C276.213 51.2967 277.796 47.5987 280.963 44.6508C284.14 41.6925 288.239 40.2133 293.255 40.2133C298.156 40.2133 302.192 41.6925 305.359 44.6508C308.536 47.5987 310.13 51.2967 310.13 55.755C310.13 60.1039 308.536 63.755 305.359 66.7133C302.192 69.6612 298.156 71.13 293.255 71.13ZM307.463 80.8175V174.047H278.88V80.8175H307.463Z" fill="black"/>
<path d="M380.127 149.817V174.047H365.606C355.242 174.047 347.169 171.515 341.377 166.442C335.585 161.375 332.689 153.104 332.689 141.63V104.547H321.314V80.8175H332.689V58.0883H361.252V80.8175H379.96V104.547H361.252V141.963C361.252 144.755 361.919 146.765 363.252 147.984C364.596 149.208 366.825 149.817 369.939 149.817H380.127Z" fill="black"/>
<path d="M410.378 71.13C405.362 71.13 401.263 69.6612 398.086 66.7133C394.919 63.755 393.336 60.1039 393.336 55.755C393.336 51.2967 394.919 47.5987 398.086 44.6508C401.263 41.6925 405.362 40.2133 410.378 40.2133C415.279 40.2133 419.315 41.6925 422.482 44.6508C425.659 47.5987 427.253 51.2967 427.253 55.755C427.253 60.1039 425.659 63.755 422.482 66.7133C419.315 69.6612 415.279 71.13 410.378 71.13ZM424.586 80.8175V174.047H396.003V80.8175H424.586Z" fill="black"/>
<path d="M502.102 79.8175C513.018 79.8175 521.732 83.354 528.247 90.4217C534.758 97.4946 538.018 107.208 538.018 119.568V174.047H509.622V123.422C509.622 117.187 508.003 112.349 504.768 108.901C501.544 105.443 497.206 103.713 491.747 103.713C486.289 103.713 481.94 105.443 478.706 108.901C475.482 112.349 473.872 117.187 473.872 123.422V174.047H445.289V80.8175H473.872V93.1717C476.758 89.0623 480.654 85.8123 485.56 83.4217C490.461 81.0206 495.977 79.8175 502.102 79.8175Z" fill="black"/>
<path d="M593.318 79.4841C599.901 79.4841 605.661 80.8279 610.609 83.505C615.568 86.1716 619.385 89.6716 622.068 94.005V80.8175H650.63V173.88C650.63 182.463 648.927 190.234 645.526 197.192C642.135 204.151 636.964 209.692 630.005 213.817C623.047 217.942 614.385 220.005 604.026 220.005C590.203 220.005 579.005 216.739 570.422 210.213C561.849 203.698 556.953 194.87 555.734 183.734H583.964C584.865 187.302 586.984 190.114 590.318 192.172C593.661 194.239 597.786 195.276 602.693 195.276C608.594 195.276 613.297 193.573 616.797 190.172C620.307 186.765 622.068 181.338 622.068 173.88V160.672C619.276 165.021 615.427 168.562 610.526 171.297C605.635 174.021 599.901 175.38 593.318 175.38C585.635 175.38 578.677 173.411 572.443 169.463C566.203 165.505 561.276 159.88 557.651 152.588C554.036 145.286 552.234 136.838 552.234 127.255C552.234 117.687 554.036 109.286 557.651 102.047C561.276 94.7966 566.203 89.2289 572.443 85.3383C578.677 81.4373 585.635 79.4841 593.318 79.4841ZM622.068 127.422C622.068 120.297 620.089 114.682 616.13 110.567C612.182 106.442 607.365 104.38 601.672 104.38C595.99 104.38 591.172 106.416 587.214 110.484C583.266 114.541 581.297 120.13 581.297 127.255C581.297 134.396 583.266 140.057 587.214 144.234C591.172 148.401 595.99 150.484 601.672 150.484C607.365 150.484 612.182 148.432 616.13 144.317C620.089 140.192 622.068 134.562 622.068 127.422Z" fill="black"/>
<path d="M699.929 151.984H737.346V174.047H671.346V56.755H699.929V151.984Z" fill="black"/>
<path d="M765.419 71.13C760.403 71.13 756.304 69.6612 753.127 66.7133C749.96 63.755 748.377 60.1039 748.377 55.755C748.377 51.2967 749.96 47.5987 753.127 44.6508C756.304 41.6925 760.403 40.2133 765.419 40.2133C770.32 40.2133 774.356 41.6925 777.523 44.6508C780.7 47.5987 782.294 51.2967 782.294 55.755C782.294 60.1039 780.7 63.755 777.523 66.7133C774.356 69.6612 770.32 71.13 765.419 71.13ZM779.627 80.8175V174.047H751.044V80.8175H779.627Z" fill="black"/>
<path d="M857.143 79.8175C868.059 79.8175 876.773 83.354 883.288 90.4217C889.799 97.4946 893.059 107.208 893.059 119.568V174.047H864.663V123.422C864.663 117.187 863.044 112.349 859.809 108.901C856.585 105.443 852.247 103.713 846.788 103.713C841.33 103.713 836.981 105.443 833.747 108.901C830.523 112.349 828.913 117.187 828.913 123.422V174.047H800.33V80.8175H828.913V93.1717C831.799 89.0623 835.695 85.8123 840.601 83.4217C845.502 81.0206 851.018 79.8175 857.143 79.8175Z" fill="black"/>
<path d="M969.921 174.047L941.525 134.942V174.047H912.941V50.4008H941.525V118.734L969.754 80.8175H1005L966.254 127.588L1005.34 174.047H969.921Z" fill="black"/>
</g>
</svg>
