<svg width="6" height="8" viewBox="0 0 6 8" fill="none" xmlns="http://www.w3.org/2000/svg">
<mask id="mask0_354_1397" style="mask-type:luminance" maskUnits="userSpaceOnUse" x="0" y="0" width="6" height="8">
<path d="M0.15625 0.646484H5.15625V7.64648H0.15625V0.646484Z" fill="white"/>
</mask>
<g mask="url(#mask0_354_1397)">
<path d="M2.71875 4.28711C2.09896 4.28711 1.625 3.81315 1.625 3.19336C1.625 2.57878 2.09896 2.10482 2.71875 2.10482C3.33854 2.10482 3.8125 2.57878 3.8125 3.19336C3.8125 3.81315 3.33854 4.28711 2.71875 4.28711ZM2.71875 0.646484C1.30208 0.646484 0.171875 1.77669 0.171875 3.19336C0.171875 4.61524 2.71875 7.92773 2.71875 7.92773C2.71875 7.92773 5.26562 4.61524 5.26562 3.19336C5.26562 1.77669 4.14062 0.646484 2.71875 0.646484Z" fill="white"/>
</g>
</svg>
