<svg width="15" height="19" viewBox="0 0 15 19" fill="none" xmlns="http://www.w3.org/2000/svg">
<mask id="mask0_391_3" style="mask-type:luminance" maskUnits="userSpaceOnUse" x="0" y="0" width="12" height="19">
<path d="M0.453125 0.0429688H11.974V18.043H0.453125V0.0429688Z" fill="white"/>
</mask>
<g mask="url(#mask0_391_3)">
<path d="M10.987 17.4022V14.4595C10.987 13.7408 10.5286 13.0897 9.85156 12.8554L7.57552 12.0168C7.35156 11.7772 7.21615 11.0741 7.35156 10.496C7.35156 10.4699 7.36719 10.4387 7.36719 10.4283C7.58594 10.272 7.77865 10.095 7.94531 9.90224C7.8099 9.79287 7.6849 9.65224 7.5599 9.5012C7.11719 10.0272 6.42969 10.3866 5.65365 10.3866C4.52344 10.3137 3.32031 9.52724 3.32031 8.46474C3.32031 8.32933 3.21094 8.20433 3.07031 8.1887C3.04427 8.1887 2.5599 8.12099 2.51823 7.41787C2.50781 7.21995 2.54948 7.14183 2.57552 7.1262C2.6276 7.08453 2.80989 7.1262 2.91927 7.17828C3.05989 7.2512 3.22135 7.19391 3.29427 7.06891C3.78906 6.70953 4.28906 5.73037 4.3724 4.69391C4.92448 5.42828 5.86198 6.36578 7.25781 6.82412C7.35156 6.74078 7.46615 6.66787 7.58594 6.6262L8.02865 6.44912C5.46094 5.96474 4.28906 3.52203 4.27344 3.49599C4.27344 3.48037 4.25781 3.46474 4.25781 3.46474C4.25781 3.46474 4.25781 3.45433 4.2474 3.45433C4.2474 3.4387 4.23177 3.4387 4.21615 3.42308L4.20573 3.41266C4.1901 3.41266 4.1901 3.39703 4.17448 3.39703L4.16406 3.38141C4.14844 3.38141 4.14844 3.37099 4.13281 3.37099C4.1224 3.37099 4.1224 3.35537 4.10677 3.35537C4.09635 3.35537 4.09635 3.35537 4.08073 3.35537C4.0651 3.35537 4.0651 3.35537 4.05469 3.35537C4.03906 3.35537 4.03906 3.35537 4.02344 3.35537C4.01302 3.35537 4.01302 3.35537 3.9974 3.35537H3.98177C3.97135 3.35537 3.95573 3.35537 3.95573 3.35537C3.9401 3.35537 3.9401 3.35537 3.92969 3.37099C3.91406 3.37099 3.91406 3.37099 3.89844 3.38141C3.88802 3.38141 3.88802 3.39703 3.8724 3.39703L3.85677 3.41266C3.84635 3.41266 3.84635 3.42308 3.84635 3.42308L3.83073 3.4387L3.8151 3.45433C3.8151 3.46474 3.80469 3.46474 3.80469 3.48037C3.80469 3.48037 3.80469 3.49599 3.78906 3.50641C3.78906 3.52203 3.77865 3.52203 3.77865 3.53245C3.77865 3.54807 3.77865 3.54808 3.77865 3.5637C3.77865 3.57412 3.77865 3.57412 3.77865 3.58974C3.77865 3.60537 3.77865 3.60537 3.77865 3.61578C3.77865 3.63141 3.77865 3.63141 3.77865 3.64703C3.77865 3.65745 3.77865 3.65745 3.77865 3.67308C3.77865 3.6887 3.77865 3.69912 3.77865 3.69912C4.10677 4.94391 3.42969 6.33974 3.0026 6.64183C2.80989 6.58453 2.53385 6.53245 2.29948 6.68349C2.25781 6.70953 2.21615 6.7512 2.17448 6.79287C1.48177 5.0012 2.60156 3.83974 2.65885 3.78245C2.71094 3.73037 2.74219 3.64703 2.74219 3.5637C2.74219 3.54808 2.6276 2.30328 3.41927 1.44912C3.91406 0.912658 4.6901 0.636616 5.71094 0.662659C5.72135 0.662659 5.72135 0.662659 5.73698 0.662659C5.7526 0.662659 6.90885 0.594949 7.74219 1.36578C8.27865 1.86578 8.55469 2.62099 8.55469 3.60537C8.55469 3.67308 8.58073 3.73037 8.6224 3.78245C8.67969 3.83974 9.45052 4.77724 9.42448 5.88141C9.60677 5.70433 9.76823 5.55328 9.9349 5.38662C9.79948 4.47516 9.28906 3.73037 9.10677 3.49599C9.08073 2.40224 8.7474 1.54807 8.11198 0.954325C7.13281 0.0428666 5.84635 0.0845336 5.69531 0.0845336C4.50781 0.0689082 3.61198 0.386617 2.98698 1.04808C2.1901 1.91787 2.14844 3.07933 2.15885 3.46474C1.83073 3.86578 0.726562 5.45433 1.92448 7.59495C1.9401 7.62099 1.96615 7.65224 1.98177 7.66266C2.07552 8.25641 2.45052 8.5637 2.7526 8.6887C2.83594 9.51683 3.42969 10.1627 4.1901 10.5481C4.29948 11.1158 4.16406 11.7668 3.95573 12.0012L1.60677 12.845C0.929688 13.0897 0.476562 13.7408 0.476562 14.4595V17.4022C0.476562 17.5533 0.601562 17.6783 0.752604 17.6783C0.903646 17.6783 1.02865 17.5533 1.02865 17.4022V14.4595C1.02865 13.9752 1.33073 13.5325 1.79948 13.3658L2.54948 13.0897V14.9022C2.49219 14.9022 2.4349 14.9022 2.39323 14.9127H2.38281C2.36719 14.9127 2.36719 14.9127 2.35156 14.9127C2.34115 14.9127 2.34115 14.9127 2.32552 14.9283C2.3099 14.9283 2.3099 14.9283 2.29948 14.9439C2.28385 14.9439 2.28385 14.9543 2.27344 14.9543C2.25781 14.9543 2.25781 14.97 2.24219 14.97C2.23177 14.97 2.23177 14.9856 2.23177 14.9856L2.21615 14.996L2.20052 15.0116C2.20052 15.0272 2.1901 15.0272 2.1901 15.0377C2.1901 15.0533 2.17448 15.0533 2.17448 15.0689C2.17448 15.0793 2.15885 15.0793 2.15885 15.095C2.15885 15.1106 2.15885 15.1106 2.14844 15.121C2.14844 15.1366 2.14844 15.1366 2.14844 15.147C2.14844 15.1627 2.14844 15.1627 2.14844 15.1783V15.1887V17.345C2.14844 17.496 2.27344 17.621 2.42448 17.621C2.57552 17.621 2.70052 17.496 2.70052 17.345V15.4543C3.8724 15.4127 4.86719 15.897 5.40365 16.7772C5.41927 16.7929 5.4349 16.8085 5.44531 16.8189C5.46094 16.8345 5.47656 16.8502 5.48698 16.8606C5.5026 16.8762 5.51823 16.8762 5.52865 16.8762C5.54427 16.8762 5.54427 16.8762 5.5599 16.8918C5.57031 16.8918 5.60156 16.9022 5.61198 16.9022C5.61198 16.9022 5.61198 16.9022 5.6276 16.9022C5.6276 16.9022 5.6276 16.9022 5.63802 16.9022C5.66927 16.9022 5.67969 16.9022 5.69531 16.8918C5.71094 16.8918 5.71094 16.8918 5.72135 16.8762C5.73698 16.8762 5.7526 16.8606 5.76302 16.8606C5.77865 16.8502 5.79427 16.8345 5.80469 16.8189C5.82031 16.8085 5.83594 16.7929 5.84635 16.7772C6.35677 15.9231 7.50261 15.4127 8.73177 15.4543V17.4856C8.73177 17.6366 8.85677 17.7616 9.00781 17.7616C9.16406 17.7616 9.28906 17.6366 9.28906 17.4856V15.1887V15.1783C9.28906 15.1627 9.28906 15.1627 9.28906 15.147C9.28906 15.1366 9.28906 15.1366 9.28906 15.121C9.28906 15.1106 9.28906 15.1106 9.27344 15.095C9.27344 15.0793 9.27344 15.0793 9.25781 15.0689C9.25781 15.0533 9.2474 15.0533 9.2474 15.0377C9.2474 15.0272 9.23177 15.0272 9.23177 15.0116C9.23177 14.996 9.21615 14.996 9.21615 14.996L9.20573 14.9856C9.20573 14.9856 9.1901 14.97 9.17448 14.97C9.16406 14.97 9.16406 14.9543 9.14844 14.9543C9.13281 14.9543 9.13281 14.9439 9.1224 14.9439C9.10677 14.9439 9.10677 14.9283 9.09115 14.9283C9.08073 14.9283 9.08073 14.9283 9.0651 14.9127C9.04948 14.9127 9.04948 14.9127 9.03906 14.9127H9.02344C8.92969 14.9022 8.83073 14.9022 8.73177 14.9022V13.0377L9.61719 13.3658C10.0755 13.5325 10.3932 13.9752 10.3932 14.4595V17.4022C10.3932 17.5533 10.5182 17.6783 10.6693 17.6783C10.8203 17.6783 10.987 17.5533 10.987 17.4022ZM5.65365 16.1575C5.0599 15.4231 4.14844 14.9856 3.11198 14.9127V12.897L4.21615 12.496C4.2474 12.4856 4.27344 12.47 4.29948 12.4439C4.64844 12.1366 4.84115 11.4491 4.78385 10.7877C5.0599 10.8658 5.33594 10.9231 5.6276 10.9387H5.63802C6.02865 10.9387 6.39844 10.8554 6.7474 10.7304C6.6901 11.4075 6.88281 12.1366 7.22656 12.4439C7.25781 12.47 7.28385 12.4856 7.3099 12.496L8.22135 12.845C8.22135 12.8554 8.22135 12.897 8.22135 12.9283V14.9127C7.17448 15.0116 6.23698 15.4647 5.65365 16.1575Z" fill="#E2A9F1"/>
</g>
<mask id="mask1_391_3" style="mask-type:luminance" maskUnits="userSpaceOnUse" x="6" y="2" width="9" height="9">
<path d="M6.64062 2.66797H14.4531V10.668H6.64062V2.66797Z" fill="white"/>
</mask>
<g mask="url(#mask1_391_3)">
<path d="M14.2586 3.53337C14.2326 3.46566 14.1909 3.424 14.1649 3.39796C14.1336 3.37192 14.092 3.33025 14.0243 3.299C13.7326 3.17921 13.1805 3.24692 11.3993 4.77817C10.5711 5.49692 9.78468 6.24171 9.61802 6.40837H9.6076L7.7951 7.12712C7.51906 7.2365 7.35239 7.52817 7.40968 7.83025C7.46697 8.12192 7.5451 8.37192 7.64406 8.59067C7.64406 8.60629 7.65968 8.61671 7.65968 8.63233C8.18052 9.71046 9.2326 10.0542 9.72739 10.1532C9.76906 10.1636 9.81072 10.1636 9.86802 10.1636C10.1284 10.1636 10.3628 10.0125 10.4618 9.75212L11.1493 7.93962V7.92921C11.3316 7.74692 12.0763 6.97608 12.7795 6.14796C14.3003 4.36671 14.3993 3.84066 14.2586 3.53337ZM10.9722 7.31983C10.7378 6.97608 10.4461 6.74171 10.2274 6.58546C10.3211 6.49171 10.4201 6.39275 10.5295 6.299C10.7222 6.30942 10.9045 6.38233 11.0399 6.51775C11.1805 6.65837 11.2482 6.82504 11.2638 7.01775C11.1649 7.1115 11.0711 7.21046 10.9722 7.31983ZM9.93572 9.55942C9.9201 9.60108 9.88364 9.6115 9.84197 9.6115C9.75864 9.60108 9.65968 9.56983 9.55031 9.54379C9.53468 9.4865 9.55031 9.40317 9.65968 9.29379C9.76906 9.18442 9.76906 9.01775 9.65968 8.90837C9.55031 8.799 9.38364 8.799 9.27427 8.90837C9.14927 9.03337 9.06593 9.18442 9.02427 9.31983C8.95656 9.28338 8.87322 9.22608 8.80552 9.16879C8.78989 9.11671 8.7326 9.00733 8.95656 8.88233C9.08156 8.799 9.12322 8.63233 9.05031 8.49171C8.97218 8.37192 8.80552 8.33025 8.66489 8.39796C8.52947 8.48129 8.41489 8.59066 8.34718 8.70004C8.30552 8.64796 8.26385 8.57504 8.22218 8.50733C8.27947 8.43962 8.37843 8.38233 8.49822 8.33025C8.63885 8.27296 8.72218 8.12192 8.66489 7.97087C8.61281 7.83025 8.45656 7.74692 8.30552 7.80421C8.19614 7.84587 8.08677 7.89796 8.00343 7.95525C7.98781 7.88754 7.96177 7.80421 7.94614 7.72087C7.94614 7.67921 7.96177 7.65317 8.00343 7.63754L9.76906 6.93442C9.96177 7.04379 10.3628 7.30421 10.6128 7.77817L9.93572 9.55942ZM11.7066 6.53337C11.6336 6.38233 11.5503 6.24171 11.4305 6.13233C11.3055 6.00733 11.1649 5.924 11.0138 5.85629C12.2013 4.77817 13.3628 3.88233 13.7482 3.81462C13.6649 4.21046 12.7691 5.35629 11.7066 6.53337Z" fill="#E2A9F1"/>
</g>
</svg>
