<svg width="7" height="9" viewBox="0 0 7 9" fill="none" xmlns="http://www.w3.org/2000/svg">
<mask id="mask0_354_1313" style="mask-type:luminance" maskUnits="userSpaceOnUse" x="0" y="0" width="7" height="9">
<path d="M0.730469 0.761719H6.73047V8.76172H0.730469V0.761719Z" fill="white"/>
</mask>
<g mask="url(#mask0_354_1313)">
<path d="M4.67318 1.71029H6.07943L6.37109 0.767578H1.02734L0.730469 1.71029H2.61068C3.33464 1.71029 3.94401 2.17904 4.16276 2.82487H1.02734L0.730469 3.76237H4.19922C4.01693 4.4707 3.3763 4.99675 2.61068 4.99675H0.730469V5.7207L4.19922 9.23112H5.43359V9.11133L2.14193 5.81966C2.42839 5.81966 2.77213 5.81966 2.84505 5.81966C4.06901 5.81966 5.07422 4.92904 5.27214 3.76237H6.07943L6.37109 2.82487H5.25651C5.16276 2.39779 4.95443 2.02279 4.67318 1.71029Z" fill="white"/>
</g>
</svg>
