<svg width="17" height="16" viewBox="0 0 17 16" fill="none" xmlns="http://www.w3.org/2000/svg">
<mask id="mask0_391_4" style="mask-type:luminance" maskUnits="userSpaceOnUse" x="0" y="10" width="7" height="6">
<path d="M0.453125 10.6465H6.40625V15.6934H0.453125V10.6465Z" fill="white"/>
</mask>
<g mask="url(#mask0_391_4)">
<path d="M5.46278 10.8961C5.27528 10.7086 5.00966 10.62 4.74924 10.6565C4.15549 10.745 3.10861 11.1305 2.42111 12.6773C1.55653 14.6096 0.655488 15.2763 0.46278 15.469C0.441945 15.4898 0.457572 15.5211 0.483613 15.5263C0.863822 15.5784 2.88466 15.943 4.5409 15.4013C5.96799 14.9377 6.31174 13.0836 6.39507 12.2555C6.4159 12.0055 6.32736 11.7607 6.15549 11.5836L5.46278 10.8961Z" fill="#E2A9F1"/>
</g>
<mask id="mask1_391_4" style="mask-type:luminance" maskUnits="userSpaceOnUse" x="5" y="0" width="12" height="12">
<path d="M5.42188 0.699219H16.3698V11.6628H5.42188V0.699219Z" fill="white"/>
</mask>
<g mask="url(#mask1_391_4)">
<path d="M16.2497 0.819447C16.1716 0.741323 16.0674 0.699656 15.9633 0.699656C15.8643 0.694446 15.7601 0.736113 15.6768 0.809031L13.1924 2.86632C11.2705 4.46007 9.34867 6.06424 7.63513 7.88195L5.43721 10.2153C5.42159 10.2309 5.432 10.2622 5.45284 10.2674C5.60388 10.3038 5.74971 10.3767 5.85909 10.4913L6.55179 11.184C6.67679 11.3038 6.75492 11.4601 6.78617 11.6267C6.78617 11.6528 6.81742 11.6632 6.83825 11.6476L9.18721 9.43403C11.0049 7.72049 12.6091 5.79861 14.2028 3.87674L16.2601 1.39236C16.4112 1.23091 16.406 0.975698 16.2497 0.819447Z" fill="#E2A9F1"/>
</g>
</svg>
