<svg width="781" height="799" viewBox="0 0 781 799" fill="none" xmlns="http://www.w3.org/2000/svg">
<path d="M780.328 658.358C780.328 735.745 717.6 798.434 640.27 798.434C562.884 798.434 500.173 735.745 500.173 658.358C500.173 655.823 500.405 653.348 500.542 650.834L223.255 509.469C200 526.7 171.267 537.033 140.097 537.033C62.7094 537.033 0 474.323 0 396.956C0 319.589 62.7094 256.88 140.097 256.88C174.736 256.88 206.392 269.531 230.856 290.369L500.816 152.728C500.425 148.538 500.172 144.347 500.172 140.077C500.172 62.7281 562.883 0 640.269 0C717.597 0 780.327 62.7281 780.327 140.077C780.327 217.445 717.598 280.155 640.269 280.155C605.766 280.155 574.266 267.641 549.861 246.997L279.55 384.833C279.9 388.83 280.155 392.864 280.155 396.958C280.155 404.228 279.414 411.305 278.361 418.283L546.156 554.812C571.031 532.2 603.975 518.283 640.269 518.283C717.6 518.28 780.328 581.009 780.328 658.358Z" fill="white"/>
</svg>
