<svg width="221" height="15" viewBox="0 0 221 15" fill="none" xmlns="http://www.w3.org/2000/svg">
<path d="M177.49 14.334C180.115 14.334 182.25 12.2038 182.25 9.66732C182.25 7.13086 180.115 5.00065 177.49 5.00065H177.328C177.734 3.85482 178.474 2.71419 180.031 1.56836L179.297 0.583984C174.37 3.20378 172.812 6.80273 172.812 9.66732C172.812 12.2038 174.948 14.334 177.49 14.334ZM166.333 14.334C168.958 14.334 171.089 12.2038 171.089 9.66732C171.089 7.13086 168.958 5.00065 166.333 5.00065H166.167C166.578 3.85482 167.318 2.71419 168.875 1.56836L168.135 0.583984C163.214 3.20378 161.656 6.80273 161.656 9.66732C161.656 12.2038 163.786 14.334 166.333 14.334Z" fill="#0072FF"/>
<mask id="mask0_397_21" style="mask-type:luminance" maskUnits="userSpaceOnUse" x="0" y="6" width="160" height="3">
<path d="M0.21875 6.33398H159.307V9.00065H0.21875V6.33398Z" fill="white"/>
</mask>
<g mask="url(#mask0_397_21)">
<path fill-rule="evenodd" clip-rule="evenodd" d="M156.997 6.66797C157.565 6.66797 158.023 7.13151 158.023 7.69922C158.023 8.26693 157.565 8.73047 156.997 8.73047H1.2526C0.684895 8.73047 0.226562 8.26693 0.226562 7.69922C0.226562 7.13151 0.684895 6.66797 1.2526 6.66797H156.997Z" fill="white"/>
</g>
<mask id="mask1_397_21" style="mask-type:luminance" maskUnits="userSpaceOnUse" x="185" y="6" width="36" height="3">
<path d="M185.969 6.33398H220.214V9.00065H185.969V6.33398Z" fill="white"/>
</mask>
<g mask="url(#mask1_397_21)">
<path fill-rule="evenodd" clip-rule="evenodd" d="M219.56 6.66797C220.133 6.66797 220.591 7.13151 220.591 7.69922C220.591 8.26693 220.133 8.73047 219.56 8.73047H187.414C186.846 8.73047 186.383 8.26693 186.383 7.69922C186.383 7.13151 186.846 6.66797 187.414 6.66797H219.56Z" fill="white"/>
</g>
</svg>
