<svg width="221" height="15" viewBox="0 0 221 15" fill="none" xmlns="http://www.w3.org/2000/svg">
<mask id="mask0_397_20" style="mask-type:luminance" maskUnits="userSpaceOnUse" x="37" y="0" width="23" height="15">
<path d="M37.9688 0.833984H59.3021V14.6673H37.9688V0.833984Z" fill="white"/>
</mask>
<g mask="url(#mask0_397_20)">
<path d="M43.401 0.833984C40.776 0.833984 38.6406 2.95898 38.6406 5.49544C38.6406 8.0319 40.776 10.1621 43.401 10.1621H43.5625C43.151 11.3079 42.4167 12.4538 40.8542 13.5996L41.5938 14.5788C46.5156 11.959 48.0781 8.36003 48.0781 5.49544C48.0781 2.95898 45.9427 0.833984 43.401 0.833984ZM54.5573 0.833984C51.9323 0.833984 49.7969 2.95898 49.7969 5.49544C49.7969 8.0319 51.9323 10.1621 54.5573 10.1621H54.724C54.3125 11.3079 53.5729 12.4538 52.0156 13.5996L52.7552 14.5788C57.6771 11.959 59.2344 8.36003 59.2344 5.49544C59.2344 2.95898 57.099 0.833984 54.5573 0.833984Z" fill="#0072FF"/>
</g>
<mask id="mask1_397_20" style="mask-type:luminance" maskUnits="userSpaceOnUse" x="0" y="5" width="36" height="5">
<path d="M0.21875 5.33398H35.3073V9.33398H0.21875V5.33398Z" fill="white"/>
</mask>
<g mask="url(#mask1_397_20)">
<path fill-rule="evenodd" clip-rule="evenodd" d="M1.32031 8.49609C0.752604 8.49609 0.289062 8.03255 0.289062 7.46484C0.289062 6.89714 0.752604 6.43359 1.32031 6.43359H33.4661C34.0391 6.43359 34.4974 6.89714 34.4974 7.46484C34.4974 8.03255 34.0391 8.49609 33.4661 8.49609H1.32031Z" fill="white"/>
</g>
<mask id="mask2_397_20" style="mask-type:luminance" maskUnits="userSpaceOnUse" x="61" y="5" width="160" height="5">
<path d="M61.9688 5.33398H220.214V9.33398H61.9688V5.33398Z" fill="white"/>
</mask>
<g mask="url(#mask2_397_20)">
<path fill-rule="evenodd" clip-rule="evenodd" d="M63.8828 8.49609C63.3151 8.49609 62.8516 8.03255 62.8516 7.46484C62.8516 6.89714 63.3151 6.43359 63.8828 6.43359H219.622C220.195 6.43359 220.654 6.89714 220.654 7.46484C220.654 8.03255 220.195 8.49609 219.622 8.49609H63.8828Z" fill="white"/>
</g>
</svg>
