<svg width="46" height="47" viewBox="0 0 46 47" fill="none" xmlns="http://www.w3.org/2000/svg">
<path d="M45.7544 25.5388V39.4756C45.7544 43.3162 42.6731 46.435 38.8895 46.435H6.86492C3.08131 46.435 0 43.3162 0 39.4756V6.96837C0 3.12775 3.08131 0 6.86492 0H20.5948C21.8589 0 22.8772 1.03367 22.8772 2.32576C22.8772 3.60894 21.8589 4.64261 20.5948 4.64261H6.86492C5.60079 4.64261 4.58246 5.68519 4.58246 6.96837V39.4756C4.58246 40.7498 5.60079 41.7924 6.86492 41.7924H38.8895C40.1536 41.7924 41.1807 40.7498 41.1807 39.4756V25.5388C41.1807 24.2556 42.1991 23.222 43.4632 23.222C44.7273 23.222 45.7544 24.2556 45.7544 25.5388ZM43.4632 0H29.7421C28.478 0 27.4509 1.03367 27.4509 2.32576C27.4509 3.60894 28.478 4.64261 29.7421 4.64261H37.9414L21.2619 21.5734C20.3665 22.4824 20.3665 23.9527 21.2619 24.8616C21.7096 25.316 22.289 25.5388 22.8772 25.5388C23.4654 25.5388 24.0448 25.316 24.4925 24.8616L41.1807 7.93076V16.2536C41.1807 17.5368 42.1991 18.5794 43.4632 18.5794C44.7273 18.5794 45.7544 17.5368 45.7544 16.2536V2.32576C45.7544 1.03367 44.7273 0 43.4632 0Z" fill="#0000FF"/>
</svg>
