<svg xmlns="http://www.w3.org/2000/svg" xmlns:xlink="http://www.w3.org/1999/xlink" width="1400" zoomAndPan="magnify" viewBox="0 0 1050 374.999991" height="500" preserveAspectRatio="xMidYMid meet" version="1.0"><defs><g/><clipPath id="5ba47b7ce7"><path d="M 878.433594 137.128906 L 978.933594 137.128906 L 978.933594 237.628906 L 878.433594 237.628906 Z M 878.433594 137.128906 " clip-rule="nonzero"/></clipPath><clipPath id="80ecf9804d"><rect x="0" width="758" y="0" height="177"/></clipPath></defs><rect x="-105" width="1260" fill="#ffffff" y="-37.499999" height="449.999989" fill-opacity="1"/><rect x="-105" width="1260" fill="#ffffff" y="-37.499999" height="449.999989" fill-opacity="1"/><g clip-path="url(#5ba47b7ce7)"><path fill="#8c52ff" d="M 979.167969 192.53125 L 979.167969 222.75 C 979.167969 231.082031 972.390625 237.863281 964.058594 237.863281 L 893.542969 237.863281 C 885.210938 237.863281 878.433594 231.082031 878.433594 222.75 L 878.433594 152.238281 C 878.433594 143.90625 885.210938 137.128906 893.542969 137.128906 L 923.761719 137.128906 C 926.546875 137.128906 928.800781 139.378906 928.800781 142.164062 C 928.800781 144.949219 926.546875 147.199219 923.761719 147.199219 L 893.542969 147.199219 C 890.765625 147.199219 888.507812 149.457031 888.507812 152.238281 L 888.507812 222.75 C 888.507812 225.53125 890.765625 227.789062 893.542969 227.789062 L 964.058594 227.789062 C 966.835938 227.789062 969.09375 225.53125 969.09375 222.75 L 969.09375 192.53125 C 969.09375 189.746094 971.347656 187.496094 974.128906 187.496094 C 976.914062 187.496094 979.167969 189.746094 979.167969 192.53125 Z M 974.128906 137.128906 L 943.910156 137.128906 C 941.125 137.128906 938.875 139.378906 938.875 142.164062 C 938.875 144.949219 941.125 147.199219 943.910156 147.199219 L 961.972656 147.199219 L 925.238281 183.933594 C 923.273438 185.902344 923.273438 189.089844 925.238281 191.054688 C 926.222656 192.039062 927.511719 192.53125 928.800781 192.53125 C 930.089844 192.53125 931.378906 192.039062 932.363281 191.054688 L 969.09375 154.324219 L 969.09375 172.382812 C 969.09375 175.167969 971.347656 177.421875 974.128906 177.421875 C 976.914062 177.421875 979.167969 175.167969 979.167969 172.382812 L 979.167969 142.164062 C 979.167969 139.378906 976.914062 137.128906 974.128906 137.128906 Z M 974.128906 137.128906 " fill-opacity="1" fill-rule="nonzero"/></g><g transform="matrix(1, 0, 0, 1, 98, 99)"><g clip-path="url(#80ecf9804d)"><g fill="#000000" fill-opacity="1"><g transform="translate(3.030157, 130.53497)"><g><path d="M 90.34375 -87.96875 L 59.140625 0 L 32.328125 0 L 1.125 -87.96875 L 23.9375 -87.96875 L 45.734375 -21.546875 L 67.671875 -87.96875 Z M 90.34375 -87.96875 "/></g></g></g><g fill="#000000" fill-opacity="1"><g transform="translate(94.505455, 130.53497)"><g><path d="M 18.546875 -77.1875 C 14.785156 -77.1875 11.710938 -78.289062 9.328125 -80.5 C 6.953125 -82.71875 5.765625 -85.457031 5.765625 -88.71875 C 5.765625 -92.0625 6.953125 -94.835938 9.328125 -97.046875 C 11.710938 -99.265625 14.785156 -100.375 18.546875 -100.375 C 22.222656 -100.375 25.25 -99.265625 27.625 -97.046875 C 30.007812 -94.835938 31.203125 -92.0625 31.203125 -88.71875 C 31.203125 -85.457031 30.007812 -82.71875 27.625 -80.5 C 25.25 -78.289062 22.222656 -77.1875 18.546875 -77.1875 Z M 29.203125 -69.921875 L 29.203125 0 L 7.765625 0 L 7.765625 -69.921875 Z M 29.203125 -69.921875 "/></g></g></g><g fill="#000000" fill-opacity="1"><g transform="translate(131.47149, 130.53497)"><g><path d="M 36.21875 1 C 30.113281 1 24.679688 -0.0390625 19.921875 -2.125 C 15.160156 -4.21875 11.398438 -7.082031 8.640625 -10.71875 C 5.890625 -14.351562 4.347656 -18.425781 4.015625 -22.9375 L 25.1875 -22.9375 C 25.4375 -20.507812 26.5625 -18.539062 28.5625 -17.03125 C 30.570312 -15.53125 33.039062 -14.78125 35.96875 -14.78125 C 38.632812 -14.78125 40.695312 -15.300781 42.15625 -16.34375 C 43.625 -17.394531 44.359375 -18.753906 44.359375 -20.421875 C 44.359375 -22.429688 43.3125 -23.914062 41.21875 -24.875 C 39.132812 -25.832031 35.753906 -26.894531 31.078125 -28.0625 C 26.066406 -29.238281 21.890625 -30.472656 18.546875 -31.765625 C 15.203125 -33.054688 12.316406 -35.101562 9.890625 -37.90625 C 7.472656 -40.707031 6.265625 -44.488281 6.265625 -49.25 C 6.265625 -53.257812 7.367188 -56.910156 9.578125 -60.203125 C 11.796875 -63.503906 15.054688 -66.113281 19.359375 -68.03125 C 23.660156 -69.957031 28.78125 -70.921875 34.71875 -70.921875 C 43.488281 -70.921875 50.398438 -68.75 55.453125 -64.40625 C 60.503906 -60.0625 63.40625 -54.300781 64.15625 -47.125 L 44.359375 -47.125 C 44.023438 -49.539062 42.957031 -51.457031 41.15625 -52.875 C 39.363281 -54.300781 37.003906 -55.015625 34.078125 -55.015625 C 31.578125 -55.015625 29.65625 -54.53125 28.3125 -53.5625 C 26.976562 -52.601562 26.3125 -51.289062 26.3125 -49.625 C 26.3125 -47.613281 27.375 -46.109375 29.5 -45.109375 C 31.632812 -44.109375 34.957031 -43.109375 39.46875 -42.109375 C 44.65625 -40.765625 48.875 -39.445312 52.125 -38.15625 C 55.382812 -36.863281 58.242188 -34.773438 60.703125 -31.890625 C 63.171875 -29.003906 64.445312 -25.140625 64.53125 -20.296875 C 64.53125 -16.203125 63.378906 -12.546875 61.078125 -9.328125 C 58.785156 -6.117188 55.488281 -3.59375 51.1875 -1.75 C 46.882812 0.0820312 41.894531 1 36.21875 1 Z M 36.21875 1 "/></g></g></g><g fill="#000000" fill-opacity="1"><g transform="translate(201.393704, 130.53497)"><g><path d="M 18.546875 -77.1875 C 14.785156 -77.1875 11.710938 -78.289062 9.328125 -80.5 C 6.953125 -82.71875 5.765625 -85.457031 5.765625 -88.71875 C 5.765625 -92.0625 6.953125 -94.835938 9.328125 -97.046875 C 11.710938 -99.265625 14.785156 -100.375 18.546875 -100.375 C 22.222656 -100.375 25.25 -99.265625 27.625 -97.046875 C 30.007812 -94.835938 31.203125 -92.0625 31.203125 -88.71875 C 31.203125 -85.457031 30.007812 -82.71875 27.625 -80.5 C 25.25 -78.289062 22.222656 -77.1875 18.546875 -77.1875 Z M 29.203125 -69.921875 L 29.203125 0 L 7.765625 0 L 7.765625 -69.921875 Z M 29.203125 -69.921875 "/></g></g></g><g fill="#000000" fill-opacity="1"><g transform="translate(238.359739, 130.53497)"><g><path d="M 46.734375 -18.171875 L 46.734375 0 L 35.84375 0 C 28.070312 0 22.015625 -1.898438 17.671875 -5.703125 C 13.328125 -9.503906 11.15625 -15.707031 11.15625 -24.3125 L 11.15625 -52.125 L 2.625 -52.125 L 2.625 -69.921875 L 11.15625 -69.921875 L 11.15625 -86.96875 L 32.578125 -86.96875 L 32.578125 -69.921875 L 46.609375 -69.921875 L 46.609375 -52.125 L 32.578125 -52.125 L 32.578125 -24.0625 C 32.578125 -21.96875 33.078125 -20.460938 34.078125 -19.546875 C 35.085938 -18.628906 36.757812 -18.171875 39.09375 -18.171875 Z M 46.734375 -18.171875 "/></g></g></g><g fill="#000000" fill-opacity="1"><g transform="translate(289.235046, 130.53497)"><g><path d="M 18.546875 -77.1875 C 14.785156 -77.1875 11.710938 -78.289062 9.328125 -80.5 C 6.953125 -82.71875 5.765625 -85.457031 5.765625 -88.71875 C 5.765625 -92.0625 6.953125 -94.835938 9.328125 -97.046875 C 11.710938 -99.265625 14.785156 -100.375 18.546875 -100.375 C 22.222656 -100.375 25.25 -99.265625 27.625 -97.046875 C 30.007812 -94.835938 31.203125 -92.0625 31.203125 -88.71875 C 31.203125 -85.457031 30.007812 -82.71875 27.625 -80.5 C 25.25 -78.289062 22.222656 -77.1875 18.546875 -77.1875 Z M 29.203125 -69.921875 L 29.203125 0 L 7.765625 0 L 7.765625 -69.921875 Z M 29.203125 -69.921875 "/></g></g></g><g fill="#000000" fill-opacity="1"><g transform="translate(326.201081, 130.53497)"><g><path d="M 50.375 -70.671875 C 58.5625 -70.671875 65.097656 -68.019531 69.984375 -62.71875 C 74.867188 -57.414062 77.3125 -50.128906 77.3125 -40.859375 L 77.3125 0 L 56.015625 0 L 56.015625 -37.96875 C 56.015625 -42.644531 54.800781 -46.273438 52.375 -48.859375 C 49.957031 -51.453125 46.703125 -52.75 42.609375 -52.75 C 38.515625 -52.75 35.253906 -51.453125 32.828125 -48.859375 C 30.410156 -46.273438 29.203125 -42.644531 29.203125 -37.96875 L 29.203125 0 L 7.765625 0 L 7.765625 -69.921875 L 29.203125 -69.921875 L 29.203125 -60.65625 C 31.367188 -63.738281 34.289062 -66.175781 37.96875 -67.96875 C 41.644531 -69.769531 45.78125 -70.671875 50.375 -70.671875 Z M 50.375 -70.671875 "/></g></g></g><g fill="#000000" fill-opacity="1"><g transform="translate(410.659117, 130.53497)"><g><path d="M 34.328125 -70.921875 C 39.265625 -70.921875 43.585938 -69.914062 47.296875 -67.90625 C 51.015625 -65.90625 53.878906 -63.28125 55.890625 -60.03125 L 55.890625 -69.921875 L 77.3125 -69.921875 L 77.3125 -0.125 C 77.3125 6.3125 76.035156 12.140625 73.484375 17.359375 C 70.941406 22.578125 67.0625 26.734375 61.84375 29.828125 C 56.625 32.921875 50.128906 34.46875 42.359375 34.46875 C 31.992188 34.46875 23.59375 32.019531 17.15625 27.125 C 10.726562 22.238281 7.054688 15.617188 6.140625 7.265625 L 27.3125 7.265625 C 27.988281 9.941406 29.578125 12.050781 32.078125 13.59375 C 34.585938 15.144531 37.679688 15.921875 41.359375 15.921875 C 45.785156 15.921875 49.3125 14.644531 51.9375 12.09375 C 54.570312 9.539062 55.890625 5.46875 55.890625 -0.125 L 55.890625 -10.03125 C 53.796875 -6.769531 50.910156 -4.113281 47.234375 -2.0625 C 43.566406 -0.0195312 39.265625 1 34.328125 1 C 28.566406 1 23.347656 -0.476562 18.671875 -3.4375 C 13.992188 -6.40625 10.296875 -10.625 7.578125 -16.09375 C 4.867188 -21.570312 3.515625 -27.90625 3.515625 -35.09375 C 3.515625 -42.269531 4.867188 -48.570312 7.578125 -54 C 10.296875 -59.4375 13.992188 -63.613281 18.671875 -66.53125 C 23.347656 -69.457031 28.566406 -70.921875 34.328125 -70.921875 Z M 55.890625 -34.96875 C 55.890625 -40.3125 54.40625 -44.523438 51.4375 -47.609375 C 48.476562 -50.703125 44.863281 -52.25 40.59375 -52.25 C 36.332031 -52.25 32.71875 -50.722656 29.75 -47.671875 C 26.789062 -44.628906 25.3125 -40.4375 25.3125 -35.09375 C 25.3125 -29.738281 26.789062 -25.492188 29.75 -22.359375 C 32.71875 -19.234375 36.332031 -17.671875 40.59375 -17.671875 C 44.863281 -17.671875 48.476562 -19.210938 51.4375 -22.296875 C 54.40625 -25.390625 55.890625 -29.613281 55.890625 -34.96875 Z M 55.890625 -34.96875 "/></g></g></g><g fill="#000000" fill-opacity="1"><g transform="translate(495.743668, 130.53497)"><g><path d="M 29.203125 -16.546875 L 57.265625 -16.546875 L 57.265625 0 L 7.765625 0 L 7.765625 -87.96875 L 29.203125 -87.96875 Z M 29.203125 -16.546875 "/></g></g></g><g fill="#000000" fill-opacity="1"><g transform="translate(555.515893, 130.53497)"><g><path d="M 18.546875 -77.1875 C 14.785156 -77.1875 11.710938 -78.289062 9.328125 -80.5 C 6.953125 -82.71875 5.765625 -85.457031 5.765625 -88.71875 C 5.765625 -92.0625 6.953125 -94.835938 9.328125 -97.046875 C 11.710938 -99.265625 14.785156 -100.375 18.546875 -100.375 C 22.222656 -100.375 25.25 -99.265625 27.625 -97.046875 C 30.007812 -94.835938 31.203125 -92.0625 31.203125 -88.71875 C 31.203125 -85.457031 30.007812 -82.71875 27.625 -80.5 C 25.25 -78.289062 22.222656 -77.1875 18.546875 -77.1875 Z M 29.203125 -69.921875 L 29.203125 0 L 7.765625 0 L 7.765625 -69.921875 Z M 29.203125 -69.921875 "/></g></g></g><g fill="#000000" fill-opacity="1"><g transform="translate(592.481928, 130.53497)"><g><path d="M 50.375 -70.671875 C 58.5625 -70.671875 65.097656 -68.019531 69.984375 -62.71875 C 74.867188 -57.414062 77.3125 -50.128906 77.3125 -40.859375 L 77.3125 0 L 56.015625 0 L 56.015625 -37.96875 C 56.015625 -42.644531 54.800781 -46.273438 52.375 -48.859375 C 49.957031 -51.453125 46.703125 -52.75 42.609375 -52.75 C 38.515625 -52.75 35.253906 -51.453125 32.828125 -48.859375 C 30.410156 -46.273438 29.203125 -42.644531 29.203125 -37.96875 L 29.203125 0 L 7.765625 0 L 7.765625 -69.921875 L 29.203125 -69.921875 L 29.203125 -60.65625 C 31.367188 -63.738281 34.289062 -66.175781 37.96875 -67.96875 C 41.644531 -69.769531 45.78125 -70.671875 50.375 -70.671875 Z M 50.375 -70.671875 "/></g></g></g><g fill="#000000" fill-opacity="1"><g transform="translate(676.939964, 130.53497)"><g><path d="M 50.5 0 L 29.203125 -29.328125 L 29.203125 0 L 7.765625 0 L 7.765625 -92.734375 L 29.203125 -92.734375 L 29.203125 -41.484375 L 50.375 -69.921875 L 76.8125 -69.921875 L 47.75 -34.84375 L 77.0625 0 Z M 50.5 0 "/></g></g></g></g></g></svg>