<svg width="750" height="470" viewBox="0 0 750 470" fill="none" xmlns="http://www.w3.org/2000/svg">
<path d="M101.575 255.7H211.95C213.2 255.625 214.675 255.6 216.175 255.6C234.4 255.6 251.3 261.3 265.175 271L264.9 270.825C277.375 281.9 285.2 298 285.2 315.9C285.2 317.95 285.1 319.975 284.9 321.975L284.925 321.725C284.95 322.5 284.975 323.425 284.975 324.35C284.975 334.25 282.7 343.65 278.675 352L278.85 351.625C274.9 359.175 269.325 365.375 262.525 369.925L262.35 370.025C255.5 374.575 247.475 378 238.85 379.75L238.425 379.825C230.225 381.65 220.8 382.7 211.15 382.7C210.725 382.7 210.3 382.7 209.9 382.7H209.975H101.6L101.575 255.7ZM584.45 187.1C585.875 187 587.525 186.925 589.2 186.925C607.475 186.925 624.075 194.075 636.375 205.725L636.35 205.7C648.5 219.925 656.3 238.225 657.475 258.3V258.55H508.25C508.9 250.45 510.4 242.95 512.625 235.8L512.425 236.525C515.05 227.475 519.275 219.625 524.8 212.875L524.7 213C531.075 205.45 538.8 199.275 547.525 194.775L547.95 194.575C557.8 189.825 569.375 187.025 581.6 187.025C582.6 187.025 583.6 187.05 584.575 187.075H584.425L584.45 187.1ZM587.2 117.825C586.525 117.825 585.75 117.8 584.95 117.8C560.6 117.8 537.425 122.825 516.425 131.875L517.55 131.45C476.225 149.175 444.375 182.325 428.825 223.5L428.45 224.625C420.65 244.95 416.125 268.45 416.125 293C416.125 293.525 416.125 294.05 416.125 294.55V294.475C416.125 295.15 416.125 295.925 416.125 296.725C416.125 321.45 420.525 345.15 428.575 367.075L428.125 365.65C436.075 387.225 447.6 405.725 462.125 421.4L462.025 421.3C476.85 436.65 494.825 448.85 514.925 456.85L515.95 457.2C536.3 465.225 559.875 469.875 584.525 469.875C585.45 469.875 586.4 469.875 587.325 469.85H587.175C588.75 469.9 590.575 469.925 592.425 469.925C626.3 469.925 657.9 460.2 684.575 443.4L683.85 443.825C712.7 423.175 733.825 393.4 743.15 358.75L743.4 357.675H662.65C657.85 370.2 649.325 380.375 638.4 387.1L638.15 387.25C625.3 396.05 609.4 401.3 592.275 401.3C591.55 401.3 590.825 401.3 590.125 401.275H590.225C588.625 401.4 586.75 401.45 584.85 401.45C564.125 401.45 545.225 393.725 530.825 381L530.9 381.075C516.75 364.775 508.125 343.375 508.125 319.925C508.125 318.65 508.15 317.35 508.2 316.075V316.25H749.15C749.55 311.1 749.775 305.125 749.775 299.075C749.775 278.775 747.225 259.075 742.4 240.275L742.75 241.925C736.725 217.75 726.6 196.55 713.05 178.025L713.4 178.525C699.725 160.025 682.275 145.1 662.15 134.65L661.325 134.25C640.8 123.8 616.55 117.675 590.875 117.675C589.55 117.675 588.25 117.7 586.95 117.725H587.15L587.2 117.825ZM101.575 78.575H196.575C196.95 78.575 197.425 78.575 197.875 78.575C206.65 78.575 215.225 79.4 223.525 81L222.675 80.875C231.075 82.25 238.6 85.1 245.325 89.15L245.05 89C251.65 92.9 256.95 98.325 260.6 104.825L260.7 105.025C264.275 112.125 266.375 120.475 266.375 129.325C266.375 130.075 266.35 130.85 266.325 131.6V131.5C266.475 132.875 266.55 134.5 266.55 136.125C266.55 151.1 259.75 164.5 249.075 173.375L249 173.45C237.35 181.6 222.875 186.475 207.25 186.475C206.225 186.475 205.175 186.45 204.15 186.4H204.3H101.55L101.575 78.575ZM489.475 30.975V76.475H676.425V30.95L489.475 30.975ZM0 0.0249982V461.225H223.55C223.675 461.225 223.85 461.225 224 461.225C245.275 461.225 265.875 458.4 285.475 453.1L283.825 453.475C303.8 448.325 321.3 440.1 336.8 429.2L336.3 429.55C351.55 418.7 363.85 404.675 372.475 388.425L372.775 387.775C381.25 371.15 386.225 351.5 386.225 330.675C386.225 329.5 386.2 328.3 386.175 327.125V327.3C386.225 326.15 386.225 324.775 386.225 323.425C386.225 297.325 378.425 273.075 365.025 252.825L365.325 253.3C350.175 232.25 328.225 216.925 302.75 210.525L302 210.375C321.175 201.825 337.05 188.825 348.825 172.675L349.05 172.35C359 156.95 364.925 138.125 364.925 117.925C364.925 116.625 364.9 115.325 364.85 114.025V114.2C364.9 113.025 364.9 111.65 364.9 110.275C364.9 92.125 361 74.875 353.975 59.325L354.3 60.1C347.325 45.7 337.075 33.825 324.5 25.1L324.2 24.9C310.875 16.05 295.25 9.44999 278.45 6.02499L277.6 5.87499C260.35 2.14999 240.5 0 220.175 0C219.2 0 218.225 -1.81317e-06 217.25 0.0249982H217.4H0Z" fill="white"/>
</svg>
