<svg width="800" height="800" viewBox="0 0 800 800" fill="none" xmlns="http://www.w3.org/2000/svg">
<path fill-rule="evenodd" clip-rule="evenodd" d="M395.04 0C175.96 0 0 177.386 0 398.34C0 562.341 96.2802 699.576 235.72 763.184C235.72 688.484 235.2 698.111 292.12 455.215C260.84 392.091 285.16 287.871 355.2 287.871C452.4 287.871 386.36 431.981 375.12 488.691C365.16 532.213 398.36 565.703 438.2 565.703C514.56 565.703 564.32 468.609 564.32 354.824C564.32 267.781 504.6 204.18 401.68 204.18C218.68 204.18 172.28 407.982 235.72 471.953C251.68 496.114 235.72 497.245 235.72 528.867C224.64 562.305 136.12 513.702 136.12 388.301C136.12 274.476 229.08 140.605 418.28 140.605C567.64 140.605 667.24 251.05 667.24 368.223C667.24 525.529 580.92 639.355 454.8 639.355C411.64 639.355 371.8 615.903 358.52 589.121C334.4 682.94 329.52 730.504 292.12 783.262C328.64 793.305 365.16 800 405 800C624.08 800 800 622.613 800 401.699C790.08 177.398 614.12 0 395.04 0Z" fill="white"/>
</svg>
