<svg width="15" height="15" viewBox="0 0 15 15" fill="none" xmlns="http://www.w3.org/2000/svg">
<mask id="mask0_354_25176" style="mask-type:luminance" maskUnits="userSpaceOnUse" x="0" y="0" width="15" height="15">
<path d="M0.839844 0.0214844H14.6732V14.0215H0.839844V0.0214844Z" fill="white"/>
</mask>
<g mask="url(#mask0_354_25176)">
<path d="M7.72526 0.0214844C3.92318 0.0214844 0.839844 3.10482 0.839844 6.9069C0.839844 10.709 3.92318 13.7871 7.72526 13.7871C11.5273 13.7871 14.6055 10.709 14.6055 6.9069C14.6055 3.10482 11.5273 0.0214844 7.72526 0.0214844ZM11.069 9.74023L10.8607 10.0215C10.6107 10.334 10.3607 10.5215 9.90755 10.61C8.48047 10.8861 6.87109 9.68815 5.88151 8.52669L5.86589 8.51107C4.8763 7.34961 3.95443 5.56315 4.45443 4.19857C4.61588 3.76628 4.83984 3.54753 5.18359 3.34961L5.50651 3.19336C5.67839 3.10482 5.89714 3.17253 5.98568 3.3444L6.86068 4.94336C6.95443 5.12044 6.89193 5.33398 6.72005 5.43815L6.35026 5.65169C6.25651 5.70378 6.17318 5.77148 6.11068 5.85482C5.8138 6.22461 5.98568 6.74544 6.80859 7.71419L6.81901 7.72461C7.64193 8.68815 8.1263 8.94336 8.54297 8.70898C8.63672 8.6569 8.71484 8.58398 8.78255 8.50065L9.04818 8.17253C9.17318 8.01628 9.40234 7.99544 9.55859 8.11523L10.9961 9.23503C11.1523 9.36003 11.1888 9.57357 11.069 9.74023Z" fill="#7ED957"/>
</g>
</svg>
